<?xml version="1.0" encoding="utf-8"?>
<!-- Generator: Adobe Illustrator 25.2.0, SVG Export Plug-In . SVG Version: 6.00 Build 0)  -->
<svg version="1.1" id="Capa_1" xmlns="http://www.w3.org/2000/svg" xmlns:xlink="http://www.w3.org/1999/xlink" x="0px" y="0px"
	 viewBox="0 0 512 512" style="enable-background:new 0 0 512 512;" xml:space="preserve">
<style type="text/css">
	.st0{fill:#28A745;}
</style>
<g>
	<g>
		<path class="st0" d="M257,0C116.4,0,0,114.4,0,255s116.4,257,257,257s255-116.4,255-257S397.6,0,257,0z M392,285H287v107
			c0,16.5-13.5,30-30,30c-16.5,0-30-13.5-30-30V285H120c-16.5,0-30-13.5-30-30s13.5-30,30-30h107V120c0-16.5,13.5-30,30-30
			c16.5,0,30,13.5,30,30v105h105c16.5,0,30,13.5,30,30S408.5,285,392,285z"/>
	</g>
</g>
</svg>
