<svg id="Componente_1_1" data-name="Componente 1 – 1" xmlns="http://www.w3.org/2000/svg" xmlns:xlink="http://www.w3.org/1999/xlink" width="222" height="58" viewBox="0 0 222 58">
  <defs>
    <linearGradient id="linear-gradient" x1="0.896" y1="0.5" x2="-0.079" y2="0.5" gradientUnits="objectBoundingBox">
      <stop offset="0" stop-color="#0686db"/>
      <stop offset="1" stop-color="#095e95"/>
    </linearGradient>
  </defs>
  <path id="Rectángulo_50" data-name="Rectángulo 50" d="M18,0H222a0,0,0,0,1,0,0V58a0,0,0,0,1,0,0H0a0,0,0,0,1,0,0V18A18,18,0,0,1,18,0Z" fill="url(#linear-gradient)"/>
  <g id="Grupo_61" data-name="Grupo 61" transform="translate(-700.952 -997.972)">
    <path id="Icon_awesome-facebook-square" data-name="Icon awesome-facebook-square" d="M16.2,2.25H1.944A1.944,1.944,0,0,0,0,4.194V18.449a1.944,1.944,0,0,0,1.944,1.944H7.5V14.225H4.951v-2.9H7.5V9.109A3.544,3.544,0,0,1,11.3,5.2a15.456,15.456,0,0,1,2.248.2v2.47H12.278a1.452,1.452,0,0,0-1.637,1.568v1.885h2.785l-.445,2.9h-2.34v6.168H16.2a1.944,1.944,0,0,0,1.944-1.944V4.194A1.944,1.944,0,0,0,16.2,2.25Z" transform="translate(717.452 1015.648)" fill="#fff"/>
    <path id="Icon_awesome-instagram" data-name="Icon awesome-instagram" d="M9.073,6.659a4.653,4.653,0,1,0,4.653,4.653A4.646,4.646,0,0,0,9.073,6.659Zm0,7.678A3.025,3.025,0,1,1,12.1,11.312,3.031,3.031,0,0,1,9.073,14.337ZM15,6.469a1.085,1.085,0,1,1-1.085-1.085A1.083,1.083,0,0,1,15,6.469Zm3.082,1.1a5.371,5.371,0,0,0-1.466-3.8,5.406,5.406,0,0,0-3.8-1.466c-1.5-.085-5.99-.085-7.488,0a5.4,5.4,0,0,0-3.8,1.462,5.389,5.389,0,0,0-1.466,3.8c-.085,1.5-.085,5.99,0,7.488a5.371,5.371,0,0,0,1.466,3.8,5.413,5.413,0,0,0,3.8,1.466c1.5.085,5.99.085,7.488,0a5.371,5.371,0,0,0,3.8-1.466,5.406,5.406,0,0,0,1.466-3.8c.085-1.5.085-5.985,0-7.484Zm-1.936,9.092a3.063,3.063,0,0,1-1.725,1.725c-1.195.474-4.029.364-5.35.364s-4.159.105-5.35-.364A3.063,3.063,0,0,1,2,16.662c-.474-1.195-.364-4.029-.364-5.35S1.529,7.153,2,5.962A3.063,3.063,0,0,1,3.724,4.237c1.195-.474,4.029-.364,5.35-.364s4.159-.105,5.35.364a3.063,3.063,0,0,1,1.725,1.725c.474,1.195.364,4.029.364,5.35S16.622,15.471,16.148,16.662Z" transform="translate(746.246 1015.66)" fill="#fff"/>
  </g>
  <text id="_manillasdecontrol" data-name="@manillasdecontrol" transform="translate(138 33.926)" fill="#fff" font-size="14" font-family="Inter" font-weight="300" font-style="italic"><tspan x="-63.935" y="0">@manillasdecontrol</tspan></text>
</svg>
