<?xml version="1.0" encoding="utf-8"?>
<!-- Generator: Adobe Illustrator 24.0.0, SVG Export Plug-In . SVG Version: 6.00 Build 0)  -->
<svg version="1.1" xmlns="http://www.w3.org/2000/svg" xmlns:xlink="http://www.w3.org/1999/xlink" x="0px" y="0px"
	 viewBox="0 0 300 109" style="enable-background:new 0 0 300 109;" xml:space="preserve">
<style type="text/css">
	.st0{clip-path:url(#SVGID_2_);}
	.st1{clip-path:url(#SVGID_4_);}
	.st2{opacity:0.2;}
	.st3{clip-path:url(#SVGID_6_);fill:#979999;}
	.st4{fill:#9C9433;}
	.st5{fill:#F9EC35;}
	.st6{fill:#02062B;}
	.st7{fill:#0071BC;stroke:#0071BC;stroke-miterlimit:10;}
	.st8{fill:#670A12;}
	.st9{fill:#ED332D;}
	.st10{fill:#FFFFFF;}
	.st11{fill:#231F20;}
	.st12{fill:#F90013;stroke:#F90013;stroke-miterlimit:10;}
</style>
<g id="Slogan">
</g>
<g id="Logo">
</g>
<g id="Titulo">
	<g>
		<g>
			<g>
				<defs>
					<rect id="SVGID_1_" x="-6.3" y="1.1" width="120.6" height="136.9"/>
				</defs>
				<clipPath id="SVGID_2_">
					<use xlink:href="#SVGID_1_"  style="overflow:visible;"/>
				</clipPath>
				<g class="st0">
					<defs>
						<rect id="SVGID_3_" x="-6.3" y="1.1" width="120.6" height="136.9"/>
					</defs>
					<clipPath id="SVGID_4_">
						<use xlink:href="#SVGID_3_"  style="overflow:visible;"/>
					</clipPath>
					<g class="st1">
						<g class="st2">
							<g>
								<defs>
									<rect id="SVGID_5_" x="1.4" y="90.5" width="104.8" height="7.5"/>
								</defs>
								<clipPath id="SVGID_6_">
									<use xlink:href="#SVGID_5_"  style="overflow:visible;"/>
								</clipPath>
								<path class="st3" d="M106.2,94.2c0-2.1-23.5-3.8-52.4-3.8c-28.9,0-52.4,1.7-52.4,3.8c0,2.1,23.5,3.8,52.4,3.8
									C82.7,98,106.2,96.3,106.2,94.2"/>
							</g>
						</g>
						<path class="st4" d="M68,28c-7.6,14.4-31.7,41.3-49.1,39.1c-0.2,1.5-0.2,3,0,4.4C33.9,77.4,64.6,39.3,68,28"/>
						<path class="st5" d="M18.9,67.2c1.6-13.4,16.9-31.5,31.9-42.9c4.6-3.5,18.5-13.9,18.5-13.9l-4.5-4.1c0,0-13.7,8.4-17.8,11.3
							c-26.1,18.2-40.5,47.5-28,54C18.7,70.2,18.7,68.7,18.9,67.2"/>
						<path class="st6" d="M42.9,82.7c17.1-9,49.2-37.7,46.6-58.5c1.8-0.2,3.6-0.2,5.2,0C101.7,42,56.3,78.6,42.9,82.7"/>
						<path class="st7" d="M89.5,24.1c-17.5,1.3-39.8,19.9-52,37.8L22.7,82.2l-5.6-4.1l13.4-19.4C53.8,26.2,87,9.2,94.7,24.1
							C93.1,23.9,91.4,24,89.5,24.1"/>
						<path class="st8" d="M96.7,51.3C89.1,65.7,65,92.6,47.6,90.4c-0.2,1.5-0.2,3,0,4.4C62.6,100.6,93.3,62.5,96.7,51.3"/>
						<path class="st9" d="M47.6,90.4C49.1,77,64.7,59.2,79.4,47.5c4.5-3.6,18.9-14.8,18.9-14.8l-6.4-3c0,0-11.5,8.4-15.4,11.1
							c-28,19.8-41.6,47.5-29.1,54C47.4,93.4,47.4,91.9,47.6,90.4"/>
						<path class="st10" d="M16.7,78.2l2,1.5c0,0,0,0,0,0l0.6-0.8c0-0.1,0.1,0,0.1,0c0,0,0.1,0.1,0,0.1l-0.6,0.8c0,0,0,0,0,0
							c0,0,0,0,0,0l1.6,1.2l0.6-0.8c0,0,0.1,0,0.1,0c0,0,0.1,0.1,0,0.1L20.7,81l1.9,1.4l7.8-10.5l-5.9-4.3L16.7,78.2z M18,78.6
							C18,78.6,18,78.7,18,78.6c0,0,0-0.1,0-0.2c0.1-0.6,0.2-1.1,0.3-1.7c0.1,0.2,0.1,0.3,0.1,0.4c-0.1,0.4-0.1,0.9-0.2,1.3
							c0,0,0,0,0,0C18.1,78.5,18,78.6,18,78.6 M21.4,81c0-0.4,0.1-0.7,0.2-1.1c0-0.1,0.1-0.3-0.1-0.3c-0.1-0.1-0.2,0-0.3,0.1
							c-0.3,0.2-0.6,0.3-0.9,0.5c-0.4,0.2-0.6,0-0.6-0.4c0-0.3,0.1-0.7,0.2-1c0-0.1,0-0.3-0.1-0.3c-0.1-0.1-0.2,0-0.3,0
							c-0.3,0.1-0.6,0.3-0.8,0.4c0,0,0,0,0,0c0-0.1,0-0.1,0-0.2c0.3-0.1,0.5-0.3,0.8-0.4c0.2-0.1,0.3-0.2,0.5-0.1
							c0.2,0.1,0.1,0.3,0.1,0.5c0,0.3-0.1,0.6-0.2,1c0,0.3,0.1,0.4,0.4,0.3c0.3-0.1,0.6-0.3,0.9-0.5c0.1-0.1,0.3-0.2,0.4,0
							c0.2,0.1,0.1,0.3,0.1,0.4c0,0.3-0.1,0.6-0.2,0.9L21.4,81C21.4,81.1,21.4,81.1,21.4,81 M22.1,81.4c0-0.1,0-0.1,0-0.2
							c0.3-0.2,0.7-0.4,1-0.5c0.1-0.1,0.2-0.1,0.4,0C23,80.9,22.6,81.1,22.1,81.4 M22.6,80.5c-0.3,0.1-0.5,0-0.5-0.4
							c0-0.4,0.1-0.7,0.2-1.1c0-0.1,0.1-0.3-0.1-0.3c-0.1-0.1-0.2,0-0.3,0.1c-0.3,0.2-0.6,0.3-0.9,0.5c-0.4,0.2-0.6,0-0.6-0.4
							c0-0.3,0.1-0.7,0.2-1c0-0.1,0-0.3-0.1-0.3c-0.1-0.1-0.2,0-0.3,0c-0.3,0.1-0.6,0.3-0.8,0.4c-0.2,0.1-0.3,0.1-0.5,0
							c-0.2-0.1-0.1-0.3-0.1-0.5c0.1-0.6,0.2-1.1,0.3-1.7c0.1,0.2,0.1,0.3,0.1,0.4c-0.1,0.4-0.1,0.9-0.2,1.3
							c-0.1,0.4,0.1,0.5,0.4,0.3c0.3-0.1,0.6-0.3,0.8-0.4c0.2-0.1,0.3-0.2,0.5-0.1c0.2,0.1,0.1,0.3,0.1,0.5c0,0.3-0.1,0.6-0.2,1
							c0,0.3,0.1,0.4,0.4,0.3c0.3-0.1,0.6-0.3,0.9-0.5c0.1-0.1,0.3-0.2,0.4,0c0.2,0.1,0.1,0.3,0.1,0.4c0,0.3-0.1,0.7-0.2,1
							c0,0.4,0.1,0.5,0.4,0.3c0.4-0.2,0.8-0.4,1.2-0.6c0.1-0.1,0.2-0.1,0.4,0C23.6,80,23.1,80.3,22.6,80.5 M23.1,79.8
							c-0.3,0.1-0.5,0-0.5-0.4c0-0.4,0.1-0.7,0.2-1.1c0-0.1,0.1-0.3-0.1-0.3c-0.1-0.1-0.2,0-0.3,0.1c-0.3,0.2-0.6,0.3-0.9,0.5
							c-0.4,0.2-0.6,0-0.6-0.4c0-0.3,0.1-0.7,0.2-1c0-0.1,0-0.3-0.1-0.3c-0.1-0.1-0.2,0-0.3,0c-0.3,0.1-0.6,0.3-0.8,0.4
							c-0.2,0.1-0.3,0.1-0.5,0c-0.2-0.1-0.1-0.3-0.1-0.5c0.1-0.6,0.2-1.1,0.3-1.7c0.1,0.2,0.1,0.3,0.1,0.4c-0.1,0.4-0.1,0.9-0.2,1.3
							c-0.1,0.4,0.1,0.5,0.4,0.3c0.3-0.1,0.6-0.3,0.8-0.4c0.2-0.1,0.3-0.2,0.5-0.1c0.2,0.1,0.1,0.3,0.1,0.5c0,0.3-0.1,0.6-0.2,1
							c0,0.3,0.1,0.4,0.4,0.3c0.3-0.1,0.6-0.3,0.9-0.5c0.1-0.1,0.3-0.2,0.4,0c0.2,0.1,0.1,0.3,0.1,0.4c0,0.3-0.1,0.7-0.2,1
							c0,0.4,0.1,0.5,0.4,0.3c0.4-0.2,0.8-0.4,1.2-0.6c0.1-0.1,0.2-0.1,0.4,0C24.2,79.2,23.7,79.5,23.1,79.8 M25,78.3
							c-0.4,0.2-0.8,0.4-1.2,0.6c-0.2,0.1-0.3,0.2-0.5,0.1c-0.2-0.1-0.1-0.3-0.1-0.5c0-0.3,0.2-1.2,0.1-1.3c-0.1-0.1-0.2,0-0.3,0
							c-0.3,0.2-0.6,0.3-0.9,0.5c-0.4,0.2-0.6,0-0.6-0.4c0-0.2,0.2-0.9,0.2-1.1c0-0.3-0.1-0.4-0.4-0.3c-0.3,0.1-0.6,0.3-0.9,0.5
							c-0.2,0.1-0.4,0.1-0.5,0c-0.2-0.1-0.1-0.3-0.1-0.5c0.1-0.5,0.2-1.1,0.3-1.6c0.2,0.1,0.1,0.2,0.1,0.3c-0.1,0.5-0.1,0.9-0.2,1.4
							c0,0.1-0.1,0.3,0.1,0.4c0.1,0.1,0.3,0,0.4-0.1c0.2-0.1,0.5-0.3,0.7-0.4c0.2-0.1,0.4-0.2,0.6-0.1c0.2,0.2,0.1,0.4,0.1,0.6
							c0,0.1,0,0.2-0.1,0.2c0,0.2-0.2,0.9,0,1c0.2,0.1,0.3,0,0.4-0.1c0.3-0.1,0.5-0.3,0.8-0.4c0.2-0.1,0.3-0.2,0.5,0
							c0.1,0.1,0.1,0.3,0.1,0.5c0,0.3-0.1,0.6-0.1,0.8c0,0.2-0.1,0.3,0.1,0.5c0.2,0.1,1.2-0.5,1.6-0.7c0.1,0,0.1-0.1,0.3-0.1
							C25.3,78.2,25.1,78.2,25,78.3 M26,77.3c-0.6,0.3-1.1,0.6-1.7,0.8c-0.3,0.1-0.5-0.1-0.4-0.4c0-0.3,0.1-0.7,0.2-1
							c0-0.1,0.1-0.3,0-0.4c-0.1-0.1-0.3,0-0.4,0.1c-0.3,0.1-0.6,0.3-0.8,0.4c-0.4,0.2-0.6,0-0.6-0.4c0-0.3,0.1-0.7,0.2-1
							c0-0.1,0.1-0.3-0.1-0.3c-0.1-0.1-0.2,0-0.3,0.1c-0.3,0.2-0.6,0.3-0.9,0.5c-0.2,0.1-0.3,0.1-0.5,0c-0.2-0.1-0.2-0.3-0.1-0.5
							c0.1-0.6,0.2-1.1,0.3-1.7c0.2,0.1,0.1,0.2,0.1,0.3c-0.1,0.5-0.2,0.9-0.2,1.4c0,0.1,0,0.2,0.1,0.3c0.1,0.1,0.2,0,0.4,0
							c0.3-0.1,0.6-0.3,0.8-0.4c0.2-0.1,0.3-0.2,0.5-0.1c0.2,0.1,0.1,0.3,0.1,0.5c0,0.3-0.1,0.6-0.2,0.9c0,0.3,0.1,0.4,0.4,0.3
							c0.3-0.1,0.6-0.3,0.9-0.5c0.2-0.1,0.3-0.2,0.5,0c0.2,0.1,0.1,0.3,0.1,0.5c-0.1,0.3-0.1,0.7-0.2,1c0,0.3,0.1,0.4,0.4,0.3
							c0.4-0.2,0.8-0.4,1.2-0.6C25.7,77.3,25.8,77.2,26,77.3C25.9,77.2,25.9,77.3,26,77.3 M26.6,76.5c-0.6,0.3-1.1,0.6-1.7,0.8
							c-0.3,0.1-0.5-0.1-0.4-0.4c0-0.3,0.1-0.7,0.2-1c0-0.1,0.1-0.3,0-0.4c-0.1-0.1-0.3,0-0.4,0.1c-0.3,0.1-0.6,0.3-0.8,0.4
							c-0.4,0.2-0.6,0-0.6-0.4c0-0.3,0.1-0.7,0.2-1c0-0.1,0.1-0.3-0.1-0.3c-0.1-0.1-0.2,0-0.3,0c-0.3,0.2-0.6,0.3-0.9,0.5
							c-0.2,0.1-0.3,0.1-0.5,0C21,74.7,21,74.5,21,74.3c0.1-0.6,0.2-1.1,0.3-1.7c0.2,0.1,0.1,0.2,0.1,0.3c-0.1,0.5-0.2,0.9-0.2,1.4
							c0,0.1,0,0.2,0.1,0.3c0.1,0.1,0.2,0,0.4,0c0.3-0.1,0.6-0.3,0.8-0.4c0.2-0.1,0.3-0.2,0.5-0.1c0.2,0.1,0.1,0.3,0.1,0.5
							c0,0.3-0.1,0.6-0.2,0.9c0,0.3,0.1,0.4,0.4,0.3c0.3-0.1,0.6-0.3,0.9-0.5c0.2-0.1,0.3-0.2,0.5,0c0.2,0.1,0.1,0.3,0.1,0.5
							c-0.1,0.3-0.1,0.7-0.2,1c0,0.3,0.1,0.4,0.4,0.3c0.4-0.2,0.8-0.4,1.2-0.6C26.3,76.4,26.4,76.4,26.6,76.5
							C26.5,76.4,26.5,76.4,26.6,76.5 M27.1,75.7c-0.6,0.3-1.1,0.6-1.7,0.8c-0.3,0.1-0.5-0.1-0.4-0.4c0-0.3,0.1-0.7,0.2-1
							c0-0.1,0.1-0.3,0-0.4c-0.1-0.1-0.3,0-0.4,0.1c-0.3,0.1-0.6,0.3-0.8,0.4c-0.4,0.2-0.6,0-0.6-0.4c0-0.3,0.1-0.7,0.2-1
							c0-0.1,0.1-0.3-0.1-0.3c-0.1-0.1-0.2,0-0.3,0c-0.3,0.2-0.6,0.3-0.9,0.5c-0.2,0.1-0.3,0.1-0.5,0c-0.2-0.1-0.2-0.3-0.1-0.5
							c0.1-0.6,0.2-1.1,0.3-1.7c0.2,0.1,0.1,0.2,0.1,0.3c-0.1,0.5-0.2,0.9-0.2,1.4c0,0.1,0,0.2,0.1,0.3c0.1,0.1,0.2,0,0.4,0
							c0.3-0.1,0.6-0.3,0.8-0.4c0.2-0.1,0.3-0.2,0.5-0.1c0.2,0.1,0.1,0.3,0.1,0.5c0,0.3-0.1,0.6-0.2,0.9c0,0.3,0.1,0.4,0.4,0.3
							c0.3-0.1,0.6-0.3,0.9-0.5c0.2-0.1,0.3-0.2,0.5,0c0.2,0.1,0.1,0.3,0.1,0.5c-0.1,0.3-0.1,0.7-0.2,1c0,0.3,0.1,0.4,0.4,0.3
							c0.4-0.2,0.8-0.4,1.2-0.6C26.8,75.7,26.9,75.6,27.1,75.7C27.1,75.6,27.1,75.7,27.1,75.7"/>
						<polygon class="st11" points="27.5,73.1 27.4,73.2 27.3,73.1 27,73.5 27.1,73.6 27,73.7 26.9,73.6 26.9,73.7 26.8,73.7 
							27.2,73 27.1,73 27.2,72.9 						"/>
						<path class="st11" d="M26.5,73.3l-0.1,0.1l-0.3-0.2l0.1-0.1L26.5,73.3z M26.4,72.9l-0.1,0.2L26.1,73l0.1-0.2L26.4,72.9z
							 M26.7,73.3l-0.1,0.1l-0.1-0.1l0.1-0.1L26.7,73.3z M26.6,72.9L26.6,72.9l-0.2,0l0.1-0.1L26.6,72.9z M26.7,72.9L26.7,72.9
							l-0.2,0l0.1-0.1L26.7,72.9z M27.1,72.8L27,72.9l-0.1-0.1l-0.1,0.1l-0.1-0.1l0.1-0.1l-0.3-0.2l0.1-0.1L27.1,72.8z"/>
						<path class="st11" d="M25.8,72.6l-0.1,0.1L26,73L26,73.1l-0.5-0.4l0.1-0.1l0.1,0.1l0.1-0.1L25.8,72.6z M26,72.6l-0.1,0.1
							l-0.1-0.1l0.1-0.1L26,72.6z M26,72.4l-0.1,0.1l-0.1-0.1L26,72.4L26,72.4z M26,72.2l-0.1,0.2l-0.1-0.1l0.1-0.2L26,72.2z
							 M26.4,72.5L26.4,72.5l-0.2,0l0.1-0.1L26.4,72.5z M26.4,72.3L26.4,72.3L26,72.2l0.1-0.1L26.4,72.3z"/>
						<path class="st11" d="M25.6,71.7l-0.1,0.2l0.3,0.2l-0.1,0.2l-0.1-0.1l0.1-0.1L25.4,72l-0.1,0.2l0.1,0.1l-0.1,0.1l-0.1-0.1
							l-0.1,0.1L25,72.3l0.3-0.4l-0.1-0.1l0.1-0.1l0.1,0.1l0.1-0.2L25.6,71.7z M25.5,72.3L25.5,72.3l-0.2,0l0.1-0.1L25.5,72.3z"/>
						<path class="st11" d="M25,71.9l-0.2,0.3l-0.5-0.4l0.1-0.1l0.4,0.3l0.1-0.1l-0.3-0.2l0.1-0.1L25,71.9z M24.8,71.3l-0.2,0.3
							l-0.1-0.1l0.2-0.3L24.8,71.3z M25.2,71.6l-0.1,0.1L25,71.6l0.1-0.1L25.2,71.6z M25.2,71.4l-0.1,0.1l-0.3-0.2l0.1-0.1
							L25.2,71.4z"/>
						<path class="st11" d="M24,71.5l-0.1,0.1l-0.2-0.1l0.1-0.1L24,71.5z M24.2,71.5l-0.1,0.1L24,71.5l0.1-0.1L24.2,71.5z
							 M24.6,71.1l-0.3,0.4l-0.1-0.1l0.1-0.1L24,71.2l0.1-0.1l0.3,0.2l0.1-0.2L24.6,71.1z M24.2,70.9L24,71.1L23.9,71l0.1-0.2
							L24.2,70.9z M24.6,71l-0.1,0.1l-0.3-0.2l0.1-0.1L24.6,71z"/>
						<path class="st10" d="M98.3,32.6l-2.7-1.2l-1.3,0.9c-0.1,0.1-0.1,0-0.2,0c0,0-0.1-0.1,0-0.1c0,0,1.3-1,1.2-0.9l-1.7-0.8
							l-1,0.7c0,0-0.1,0-0.1,0c0,0-0.1,0,0-0.1l1-0.7L92,29.7l-11.1,8l4.6,4.9L98.3,32.6z M96.3,32.7C96.3,32.7,96.3,32.7,96.3,32.7
							c0.1,0,0,0.1,0,0.2c-0.3,0.5-0.6,1.1-0.9,1.7c-0.2-0.2,0-0.3,0-0.4c0.2-0.4,0.5-0.9,0.7-1.3c0,0,0,0,0,0
							C96.2,32.8,96.2,32.8,96.3,32.7 M92.7,30.5c-0.2,0.3-0.4,0.6-0.5,0.9c-0.1,0.1-0.2,0.2,0,0.3c0.1,0.1,0.2,0,0.4-0.1
							c0.4-0.1,0.8-0.3,1.2-0.4c0.5-0.2,0.7,0,0.5,0.3c-0.2,0.3-0.4,0.6-0.5,0.9c-0.1,0.1-0.2,0.2,0,0.3c0.1,0.1,0.3,0,0.4,0
							c0.4-0.1,0.8-0.3,1.2-0.4c0,0,0,0,0,0c0,0-0.1,0.1-0.1,0.1c-0.4,0.1-0.8,0.3-1.2,0.4c-0.2,0.1-0.5,0.2-0.7,0.1
							c-0.2-0.1,0-0.3,0.1-0.4c0.2-0.3,0.4-0.6,0.5-0.8c0.2-0.3,0-0.4-0.4-0.2c-0.4,0.1-0.8,0.3-1.2,0.4c-0.2,0.1-0.4,0.1-0.5,0
							c-0.1-0.1,0-0.2,0-0.4c0.2-0.3,0.3-0.5,0.5-0.7L92.7,30.5C92.7,30.5,92.7,30.5,92.7,30.5 M92.1,30.3c0,0-0.1,0.1-0.1,0.1
							c-0.4,0.2-0.8,0.3-1.3,0.5c-0.1,0-0.3,0.1-0.4,0C90.9,30.8,91.5,30.6,92.1,30.3 M91.3,31c0.4-0.1,0.5,0,0.4,0.3
							c-0.2,0.3-0.4,0.6-0.5,0.9c-0.1,0.1-0.1,0.2,0,0.3c0.1,0.1,0.2,0,0.4-0.1c0.4-0.1,0.8-0.3,1.2-0.4c0.5-0.2,0.7,0,0.6,0.4
							c-0.1,0.3-0.4,0.6-0.5,0.9c-0.1,0.1-0.1,0.2,0,0.3c0.1,0.1,0.3,0,0.4,0c0.4-0.1,0.8-0.3,1.2-0.4c0.2-0.1,0.5-0.1,0.7,0
							c0.2,0.1,0.1,0.3,0,0.5c-0.3,0.5-0.6,1.1-0.9,1.7c-0.1-0.2,0-0.3,0-0.4c0.2-0.5,0.5-0.9,0.7-1.3c0.2-0.4,0-0.5-0.5-0.3
							c-0.4,0.1-0.8,0.3-1.2,0.4c-0.2,0.1-0.5,0.2-0.7,0c-0.2-0.1,0-0.3,0-0.5c0.2-0.3,0.4-0.6,0.5-0.9c0.2-0.3,0-0.4-0.4-0.3
							c-0.4,0.1-0.8,0.3-1.2,0.4c-0.2,0.1-0.4,0.1-0.5,0c-0.1-0.1,0-0.2,0-0.4c0.2-0.3,0.3-0.6,0.5-0.8c0.2-0.3,0.1-0.4-0.4-0.2
							c-0.5,0.2-1,0.3-1.4,0.5c-0.1,0-0.3,0.1-0.4,0C90,31.5,90.6,31.3,91.3,31 M90.4,31.7c0.4-0.1,0.5,0,0.4,0.3
							c-0.2,0.3-0.4,0.6-0.5,0.9c-0.1,0.1-0.2,0.2,0,0.3c0.1,0.1,0.2,0,0.4,0c0.4-0.1,0.8-0.3,1.2-0.4c0.5-0.1,0.7,0,0.5,0.4
							c-0.2,0.3-0.4,0.6-0.5,0.9c-0.1,0.1-0.1,0.2,0,0.3c0.1,0.1,0.3,0,0.4,0c0.4-0.1,0.8-0.3,1.2-0.4c0.2-0.1,0.5-0.1,0.7,0
							c0.2,0.1,0.1,0.3,0,0.5c-0.3,0.6-0.6,1.1-1,1.7c-0.1-0.2,0-0.3,0-0.4c0.2-0.5,0.5-0.9,0.7-1.4c0.2-0.4,0-0.5-0.5-0.3
							c-0.4,0.1-0.8,0.3-1.2,0.4c-0.2,0.1-0.5,0.2-0.6,0c-0.2-0.1,0-0.3,0.1-0.5c0.2-0.3,0.4-0.6,0.5-0.9c0.2-0.3,0-0.4-0.4-0.3
							c-0.4,0.1-0.8,0.3-1.2,0.4c-0.2,0.1-0.4,0.1-0.5,0c-0.1-0.1,0-0.3,0-0.4c0.2-0.3,0.4-0.6,0.5-0.8c0.2-0.3,0.1-0.4-0.3-0.3
							c-0.5,0.2-0.9,0.3-1.4,0.5c-0.1,0-0.2,0.1-0.4,0C89.1,32.1,89.8,31.9,90.4,31.7 M88,32.8c0.5-0.2,0.9-0.3,1.4-0.5
							c0.2-0.1,0.4-0.1,0.5,0c0.1,0.1,0,0.3,0,0.4c-0.2,0.3-0.6,1-0.6,1.1c0.1,0.1,0.2,0,0.4,0c0.4-0.1,0.8-0.3,1.2-0.4
							c0.5-0.1,0.7,0,0.5,0.4c-0.1,0.2-0.5,0.9-0.6,1c-0.1,0.3,0,0.4,0.3,0.3c0.4-0.1,0.8-0.3,1.3-0.4c0.2-0.1,0.5-0.1,0.7,0
							c0.2,0.1,0.1,0.3,0,0.5c-0.3,0.6-0.6,1.1-1,1.7c-0.2-0.1,0-0.2,0-0.3c0.3-0.5,0.5-0.9,0.8-1.4c0.1-0.1,0.2-0.3,0.1-0.4
							c-0.2-0.1-0.4,0-0.6,0c-0.3,0.1-0.7,0.2-1,0.3c-0.2,0.1-0.5,0.2-0.7,0c-0.2-0.2,0-0.4,0.1-0.6c0-0.1,0.1-0.1,0.2-0.2
							c0.1-0.2,0.5-0.8,0.4-0.9c-0.1-0.1-0.4,0-0.5,0.1c-0.3,0.1-0.7,0.2-1,0.3c-0.2,0.1-0.4,0.1-0.5,0c-0.1-0.1,0-0.3,0.1-0.4
							c0.1-0.2,0.3-0.5,0.4-0.7c0.1-0.1,0.3-0.3,0.1-0.4c-0.1-0.1-1.4,0.4-1.9,0.5c-0.1,0-0.2,0.1-0.3,0
							C87.7,32.9,87.9,32.9,88,32.8 M86.7,33.6c0.6-0.2,1.3-0.4,1.9-0.6c0.3-0.1,0.4,0.1,0.3,0.4c-0.2,0.3-0.4,0.6-0.5,0.9
							c-0.1,0.1-0.2,0.2-0.1,0.3c0.1,0.1,0.3,0,0.4,0c0.3-0.1,0.7-0.2,1.1-0.3c0.5-0.1,0.7,0,0.5,0.4c-0.2,0.3-0.4,0.6-0.6,0.9
							c-0.1,0.1-0.2,0.2-0.1,0.3c0.1,0.1,0.2,0,0.4,0c0.4-0.1,0.8-0.2,1.2-0.4c0.2-0.1,0.4-0.1,0.6,0c0.2,0.1,0.1,0.3,0,0.5
							c-0.3,0.6-0.6,1.1-1,1.8c-0.1-0.2,0-0.3,0-0.4c0.3-0.5,0.5-1,0.8-1.4c0.1-0.1,0.1-0.2,0-0.3c-0.1-0.1-0.3-0.1-0.4,0
							c-0.4,0.1-0.8,0.2-1.2,0.3c-0.2,0.1-0.5,0.2-0.6,0c-0.2-0.2,0-0.4,0.1-0.5c0.2-0.3,0.4-0.6,0.5-0.9c0.2-0.3,0-0.4-0.3-0.3
							c-0.4,0.1-0.8,0.2-1.1,0.4c-0.2,0.1-0.4,0.1-0.5,0c-0.1-0.1,0-0.3,0.1-0.4c0.2-0.3,0.4-0.6,0.5-0.9c0.2-0.3,0.1-0.4-0.3-0.3
							c-0.5,0.2-0.9,0.3-1.4,0.5C87,33.7,86.9,33.7,86.7,33.6C86.7,33.7,86.7,33.7,86.7,33.6 M85.9,34.3c0.6-0.2,1.3-0.4,1.9-0.6
							c0.3-0.1,0.4,0.1,0.3,0.4c-0.2,0.3-0.4,0.6-0.5,0.9c-0.1,0.1-0.2,0.2-0.1,0.3c0.1,0.1,0.3,0,0.4,0c0.3-0.1,0.7-0.2,1-0.3
							c0.5-0.1,0.7,0,0.5,0.4c-0.2,0.3-0.4,0.6-0.6,0.9c-0.1,0.1-0.2,0.2-0.1,0.3c0.1,0.1,0.2,0,0.4,0c0.4-0.1,0.8-0.2,1.2-0.4
							c0.2-0.1,0.4-0.1,0.6,0c0.2,0.1,0.1,0.3,0,0.5c-0.3,0.6-0.7,1.1-1,1.8c-0.1-0.2,0-0.3,0-0.4c0.3-0.5,0.6-1,0.8-1.5
							c0.1-0.1,0.1-0.2,0.1-0.3c-0.1-0.1-0.3-0.1-0.4,0c-0.4,0.1-0.8,0.2-1.2,0.3c-0.2,0.1-0.5,0.2-0.6,0c-0.2-0.2,0-0.4,0.1-0.5
							c0.2-0.3,0.4-0.6,0.5-0.9c0.2-0.3,0.1-0.4-0.3-0.3c-0.4,0.1-0.8,0.2-1.1,0.4c-0.2,0.1-0.4,0.1-0.5,0c-0.1-0.1,0-0.3,0.1-0.4
							c0.2-0.3,0.4-0.6,0.5-0.9c0.2-0.3,0.1-0.4-0.3-0.3c-0.5,0.1-0.9,0.3-1.4,0.4C86.1,34.3,86,34.4,85.9,34.3
							C85.9,34.3,85.9,34.3,85.9,34.3 M85.1,34.9c0.6-0.2,1.2-0.4,1.9-0.6c0.3-0.1,0.4,0.1,0.2,0.4c-0.2,0.3-0.4,0.6-0.6,0.9
							c-0.1,0.1-0.2,0.2-0.1,0.4c0.1,0.1,0.3,0,0.4,0c0.3-0.1,0.7-0.2,1-0.3c0.5-0.1,0.7,0,0.5,0.5c-0.2,0.3-0.4,0.6-0.6,1
							c-0.1,0.1-0.2,0.2-0.1,0.3c0.1,0.1,0.2,0,0.4,0c0.4-0.1,0.8-0.2,1.2-0.3c0.2-0.1,0.4-0.1,0.6,0c0.2,0.1,0.1,0.3,0,0.5
							c-0.3,0.6-0.7,1.2-1,1.8c-0.1-0.2,0-0.3,0-0.4c0.3-0.5,0.6-1,0.9-1.5c0.1-0.1,0.1-0.2,0.1-0.3c-0.1-0.1-0.3-0.1-0.4,0
							c-0.4,0.1-0.8,0.2-1.1,0.3c-0.2,0.1-0.5,0.2-0.6,0c-0.1-0.2,0-0.4,0.1-0.5c0.2-0.3,0.4-0.6,0.6-0.9c0.2-0.3,0.1-0.4-0.3-0.3
							c-0.4,0.1-0.7,0.2-1.1,0.3c-0.2,0.1-0.4,0.1-0.5,0c-0.1-0.1,0-0.3,0.1-0.4c0.2-0.3,0.4-0.6,0.6-0.9c0.2-0.3,0.1-0.4-0.3-0.3
							c-0.5,0.1-0.9,0.3-1.4,0.4C85.3,34.9,85.2,35,85.1,34.9C85.1,34.9,85.1,34.9,85.1,34.9"/>
						<polygon class="st11" points="83.4,37.7 83.5,37.6 83.5,37.6 83.9,37.3 83.9,37.2 84,37.1 84.1,37.2 84.2,37.1 84.2,37.1 
							83.6,37.7 83.7,37.8 83.6,37.9 						"/>
						<path class="st11" d="M84.3,37.4l0.1-0.1l0.2,0.2l-0.1,0.1L84.3,37.4z M84.3,37.8l0.2-0.2l0.1,0.1L84.3,37.8L84.3,37.8z
							 M84.1,37.5l0.1-0.1l0.1,0.1L84.1,37.5L84.1,37.5z M84.1,37.8l0.1-0.1l0.1,0.1L84.1,37.8L84.1,37.8z M83.9,37.9l0.1-0.1
							l0.1,0.1L83.9,37.9L83.9,37.9z M83.6,37.9l0.1-0.1l0.1,0.1l0.1-0.1l0.1,0.1L83.8,38l0.2,0.2l-0.1,0.1L83.6,37.9z"/>
						<path class="st11" d="M84.7,38.1l0.1-0.1l-0.2-0.2l0.1-0.1l0.3,0.4L85,38.1l-0.1-0.1L84.7,38.1L84.7,38.1z M84.5,38.1l0.1-0.1
							l0.1,0.1L84.5,38.1L84.5,38.1z M84.5,38.3l0.1-0.1l0.1,0.1L84.5,38.3L84.5,38.3z M84.4,38.5l0.2-0.2l0.1,0.1L84.4,38.5
							L84.4,38.5z M84.1,38.2l0.1-0.1l0.1,0.1L84.1,38.2L84.1,38.2z M84.1,38.4l0.1-0.1l0.2,0.2l-0.1,0.1L84.1,38.4z"/>
						<path class="st11" d="M84.6,39l0.2-0.2l-0.2-0.2l0.2-0.2l0.1,0.1l-0.1,0.1l0.1,0.2l0.2-0.2l-0.1-0.1l0.1-0.1l0.1,0.1l0.1-0.1
							l0.1,0.1L85,38.8l0.1,0.1L84.9,39l-0.1-0.1L84.6,39L84.6,39z M84.9,38.5l0.1-0.1l0.1,0.1L84.9,38.5L84.9,38.5z"/>
						<path class="st11" d="M85.2,38.9l0.3-0.3l0.4,0.4L85.8,39l-0.3-0.3l-0.1,0.1l0.2,0.2l-0.1,0.1L85.2,38.9z M85.2,39.5l0.3-0.3
							l0.1,0.1L85.2,39.5L85.2,39.5z M84.9,39.2l0.1-0.1l0.1,0.1L84.9,39.2L84.9,39.2z M84.9,39.3l0.1-0.1l0.2,0.2l-0.1,0.1
							L84.9,39.3z"/>
						<path class="st11" d="M86,39.3l0.1-0.1l0.2,0.2l-0.1,0.1L86,39.3z M85.9,39.3l0.1-0.1l0.1,0.1L85.9,39.3L85.9,39.3z
							 M85.3,39.6l0.5-0.4l0.1,0.1l-0.1,0.1l0.2,0.3l-0.1,0.1l-0.2-0.3L85.3,39.6L85.3,39.6z M85.6,40l0.2-0.2l0.1,0.1L85.6,40
							L85.6,40z M85.3,39.8l0.1-0.1l0.2,0.2l-0.1,0.1L85.3,39.8z"/>
						<path class="st10" d="M69.2,10.3l-1.6-1.5c0,0,0,0,0,0l-0.7,0.5c-0.1,0-0.1,0-0.1,0c0,0-0.1-0.1,0-0.1l0.7-0.5c0,0,0,0,0,0
							c0,0,0,0,0,0l-1.2-1.2L65.5,8c0,0-0.1,0-0.1,0c0,0,0-0.1,0-0.1l0.7-0.5l-1.4-1.3l-11.4,7.1l4.5,5.6L69.2,10.3z M68.1,9.8
							C68.1,9.8,68.1,9.7,68.1,9.8c0,0,0,0.1,0,0.1c-0.2,0.4-0.4,0.9-0.7,1.4c-0.1-0.2,0-0.2,0-0.3c0.2-0.4,0.4-0.7,0.5-1.1
							c0,0,0,0,0,0C68,9.8,68,9.8,68.1,9.8 M65.4,7.3c-0.1,0.3-0.3,0.5-0.4,0.8c0,0.1-0.1,0.2,0,0.3c0.1,0.1,0.2,0,0.3,0
							c0.3-0.1,0.7-0.1,1-0.2c0.4-0.1,0.6,0.1,0.4,0.4c-0.1,0.3-0.3,0.5-0.4,0.8c-0.1,0.1-0.1,0.2,0,0.3c0.1,0.1,0.2,0.1,0.3,0
							c0.3-0.1,0.6-0.1,0.9-0.2c0,0,0,0,0,0c0,0,0,0.1,0,0.1c-0.3,0.1-0.6,0.1-0.9,0.2c-0.2,0-0.4,0.1-0.5,0c-0.1-0.1,0-0.3,0-0.4
							c0.1-0.2,0.3-0.5,0.4-0.7c0.1-0.2,0-0.3-0.3-0.3c-0.3,0.1-0.7,0.1-1,0.2c-0.2,0-0.3,0.1-0.4,0c-0.1-0.1,0-0.2,0-0.3
							c0.1-0.2,0.3-0.4,0.4-0.7L65.4,7.3C65.4,7.3,65.4,7.3,65.4,7.3 M64.9,7c0,0-0.1,0.1-0.1,0.1c-0.4,0.1-0.7,0.1-1.1,0.2
							c-0.1,0-0.2,0.1-0.4,0C63.9,7.2,64.4,7.1,64.9,7 M64.2,7.5c0.3-0.1,0.5,0.1,0.3,0.4c-0.1,0.3-0.3,0.5-0.4,0.8
							c-0.1,0.1-0.1,0.2,0,0.3c0.1,0.1,0.2,0,0.3,0c0.3-0.1,0.7-0.2,1-0.2c0.4-0.1,0.6,0.1,0.4,0.4c-0.1,0.3-0.3,0.5-0.4,0.8
							c-0.1,0.1-0.1,0.2,0,0.3c0.1,0.1,0.2,0.1,0.3,0c0.3-0.1,0.6-0.1,0.9-0.2c0.2,0,0.4-0.1,0.5,0.1c0.1,0.1,0.1,0.3,0,0.4
							c-0.2,0.4-0.4,0.9-0.7,1.4c-0.1-0.2,0-0.3,0-0.3c0.2-0.4,0.4-0.7,0.5-1.1c0.1-0.3,0-0.4-0.3-0.3c-0.3,0.1-0.6,0.1-0.9,0.2
							c-0.2,0-0.4,0.1-0.5,0c-0.1-0.1,0-0.3,0-0.4c0.1-0.3,0.3-0.5,0.4-0.7c0.1-0.2,0-0.4-0.3-0.3c-0.3,0.1-0.7,0.1-1,0.2
							c-0.2,0-0.3,0.1-0.4,0c-0.1-0.1,0-0.2,0-0.4c0.1-0.3,0.3-0.5,0.4-0.7c0.1-0.3,0-0.4-0.3-0.3c-0.4,0.1-0.8,0.2-1.3,0.2
							c-0.1,0-0.2,0.1-0.4,0C63.1,7.7,63.6,7.6,64.2,7.5 M63.5,8c0.3-0.1,0.5,0.1,0.3,0.4c-0.1,0.3-0.3,0.5-0.5,0.8
							c-0.1,0.1-0.1,0.2,0,0.3c0.1,0.1,0.2,0,0.3,0c0.3-0.1,0.7-0.2,1-0.2c0.4-0.1,0.6,0.1,0.4,0.4c-0.1,0.3-0.3,0.5-0.4,0.8
							c-0.1,0.1-0.1,0.2,0,0.3c0.1,0.1,0.2,0.1,0.4,0c0.3-0.1,0.6-0.2,0.9-0.2c0.2,0,0.4-0.1,0.5,0.1c0.1,0.1,0.1,0.3,0,0.4
							c-0.2,0.5-0.5,0.9-0.7,1.4c-0.1-0.2,0-0.3,0-0.3c0.2-0.4,0.4-0.7,0.6-1.1c0.1-0.3,0-0.4-0.3-0.3c-0.3,0.1-0.6,0.1-0.9,0.2
							c-0.2,0-0.4,0.1-0.5,0c-0.1-0.1,0-0.3,0-0.4c0.1-0.3,0.3-0.5,0.4-0.8c0.1-0.3,0-0.4-0.3-0.3c-0.3,0.1-0.7,0.1-1,0.2
							c-0.2,0-0.3,0.1-0.4,0c-0.1-0.1,0-0.2,0-0.4c0.1-0.3,0.3-0.5,0.4-0.8c0.2-0.3,0.1-0.4-0.3-0.3c-0.4,0.1-0.9,0.2-1.3,0.3
							c-0.1,0-0.2,0.1-0.4,0C62.3,8.2,62.9,8.1,63.5,8 M61.2,8.8c0.4-0.1,0.9-0.2,1.3-0.3c0.2,0,0.4-0.1,0.5,0c0.1,0.1,0,0.3,0,0.4
							c-0.1,0.2-0.6,0.9-0.5,1c0.1,0.1,0.2,0,0.4,0c0.3-0.1,0.7-0.2,1-0.2c0.5-0.1,0.6,0.1,0.4,0.4c-0.1,0.2-0.4,0.7-0.5,0.9
							c-0.1,0.2,0,0.3,0.3,0.3c0.3-0.1,0.7-0.2,1-0.2c0.2,0,0.4-0.1,0.5,0.1c0.1,0.1,0,0.3,0,0.4c-0.2,0.5-0.5,0.9-0.7,1.4
							c-0.1-0.1,0-0.2,0-0.2c0.2-0.4,0.4-0.8,0.6-1.2c0.1-0.1,0.2-0.2,0-0.4c-0.1-0.1-0.3,0-0.4,0c-0.3,0.1-0.5,0.1-0.8,0.2
							c-0.2,0-0.4,0.1-0.6,0c-0.2-0.2,0-0.3,0.1-0.5c0-0.1,0.1-0.1,0.1-0.2c0.1-0.1,0.4-0.7,0.3-0.8c-0.1-0.1-0.3,0-0.5,0
							c-0.3,0.1-0.6,0.1-0.9,0.2c-0.2,0-0.4,0.1-0.5,0c-0.1-0.1,0-0.3,0-0.4c0.1-0.2,0.3-0.4,0.4-0.6c0.1-0.1,0.2-0.3,0.1-0.4
							c-0.1-0.1-1.3,0.2-1.8,0.3c-0.1,0-0.2,0.1-0.3,0C61,8.8,61.1,8.8,61.2,8.8 M60,9.4c0.6-0.1,1.3-0.3,1.9-0.4
							c0.3,0,0.4,0.1,0.3,0.4c-0.1,0.3-0.3,0.5-0.5,0.8c-0.1,0.1-0.2,0.2-0.1,0.3c0.1,0.1,0.3,0,0.4,0c0.3-0.1,0.6-0.2,1-0.2
							c0.5-0.1,0.6,0.1,0.5,0.5c-0.1,0.3-0.3,0.5-0.5,0.8c-0.1,0.1-0.2,0.2,0,0.3c0.1,0.1,0.2,0,0.3,0c0.4-0.1,0.7-0.2,1-0.2
							c0.2,0,0.4-0.1,0.5,0.1c0.1,0.1,0.1,0.3,0,0.4c-0.2,0.5-0.5,1-0.8,1.5c-0.1-0.1,0-0.2,0-0.3c0.2-0.4,0.4-0.8,0.6-1.2
							c0.1-0.1,0.1-0.2,0-0.3c-0.1-0.1-0.2-0.1-0.4-0.1c-0.3,0.1-0.7,0.2-1,0.2c-0.2,0-0.4,0.1-0.6,0c-0.1-0.2,0-0.3,0.1-0.5
							c0.1-0.3,0.3-0.5,0.4-0.8c0.1-0.3,0-0.4-0.3-0.3c-0.3,0.1-0.7,0.2-1,0.2c-0.2,0-0.4,0.1-0.5-0.1c-0.1-0.1,0-0.3,0.1-0.4
							c0.2-0.3,0.3-0.5,0.5-0.8c0.1-0.3,0-0.4-0.3-0.3c-0.5,0.1-0.9,0.2-1.4,0.3C60.3,9.5,60.1,9.5,60,9.4C60,9.5,60,9.5,60,9.4
							 M59.1,10c0.7-0.1,1.3-0.3,1.9-0.4c0.3,0,0.4,0.1,0.3,0.4c-0.1,0.3-0.3,0.5-0.5,0.8c-0.1,0.1-0.2,0.2-0.1,0.3
							c0.1,0.1,0.3,0,0.4,0c0.3-0.1,0.7-0.2,1-0.2c0.5-0.1,0.6,0.1,0.5,0.5c-0.1,0.3-0.3,0.6-0.5,0.8c-0.1,0.1-0.2,0.2-0.1,0.3
							c0.1,0.1,0.2,0,0.3,0c0.4-0.1,0.7-0.2,1.1-0.3c0.2,0,0.4-0.1,0.5,0.1c0.1,0.1,0.1,0.3,0,0.4c-0.3,0.5-0.5,1-0.8,1.5
							c-0.1-0.1,0-0.2,0-0.3c0.2-0.4,0.5-0.8,0.7-1.2c0.1-0.1,0.1-0.2,0-0.3c-0.1-0.1-0.2-0.1-0.4-0.1c-0.3,0.1-0.7,0.2-1,0.2
							c-0.2,0-0.4,0.1-0.6,0c-0.1-0.2,0-0.3,0.1-0.5c0.2-0.3,0.3-0.5,0.5-0.8c0.1-0.3,0-0.4-0.3-0.3c-0.4,0.1-0.7,0.2-1.1,0.2
							c-0.2,0-0.4,0.1-0.5-0.1c-0.1-0.1,0-0.3,0.1-0.4c0.2-0.3,0.3-0.5,0.5-0.8c0.2-0.3,0.1-0.4-0.3-0.3C60.4,9.8,60,9.9,59.5,10
							C59.4,10.1,59.2,10.1,59.1,10C59.1,10.1,59.1,10,59.1,10 M58.3,10.5c0.7-0.1,1.3-0.3,2-0.4c0.3,0,0.4,0.2,0.3,0.4
							c-0.2,0.3-0.3,0.5-0.5,0.8c-0.1,0.1-0.2,0.2-0.1,0.3c0.1,0.1,0.3,0,0.4,0c0.3-0.1,0.7-0.2,1-0.2c0.5-0.1,0.7,0.1,0.5,0.5
							c-0.2,0.3-0.3,0.6-0.5,0.9c-0.1,0.1-0.2,0.2-0.1,0.3c0.1,0.1,0.2,0,0.3,0c0.4-0.1,0.7-0.2,1.1-0.3c0.2,0,0.4-0.1,0.5,0.1
							c0.1,0.1,0.1,0.3,0,0.4c-0.3,0.5-0.6,1-0.9,1.6c-0.1-0.1,0-0.2,0-0.3c0.2-0.4,0.5-0.9,0.7-1.3c0.1-0.1,0.1-0.2,0-0.3
							C63,13,62.8,13,62.7,13.1c-0.3,0.1-0.7,0.2-1,0.2c-0.2,0-0.4,0.1-0.6,0c-0.1-0.2,0-0.3,0.1-0.5c0.2-0.3,0.3-0.5,0.5-0.8
							c0.2-0.3,0-0.4-0.3-0.3c-0.4,0.1-0.7,0.2-1.1,0.2c-0.2,0-0.4,0.1-0.5-0.1c-0.1-0.1,0-0.3,0.1-0.4c0.2-0.3,0.4-0.5,0.5-0.8
							c0.2-0.3,0.1-0.4-0.3-0.3c-0.5,0.1-0.9,0.2-1.4,0.3C58.5,10.6,58.4,10.6,58.3,10.5C58.3,10.6,58.3,10.6,58.3,10.5"/>
						<polygon class="st11" points="56.9,12.7 57,12.7 57,12.8 57.5,12.4 57.4,12.4 57.6,12.3 57.6,12.4 57.7,12.3 57.8,12.4 
							57.1,12.8 57.2,12.9 57.1,13 						"/>
						<path class="st11" d="M57.9,12.7l0.1-0.1l0.2,0.3L58.2,13L57.9,12.7z M57.9,13.1l0.2-0.2l0.1,0.1L57.9,13.1L57.9,13.1z
							 M57.7,12.7l0.1-0.1l0.1,0.1L57.7,12.7L57.7,12.7z M57.7,13.1l0.1-0.1l0.1,0.1L57.7,13.1L57.7,13.1z M57.5,13.1l0.1-0.1
							l0.1,0.1L57.5,13.1L57.5,13.1z M57.1,13.1l0.1-0.1l0.1,0.1l0.1-0.1l0.1,0.1l-0.1,0.1l0.2,0.3l-0.1,0.1L57.1,13.1z"/>
						<path class="st11" d="M58.4,13.5l0.1-0.1l-0.2-0.3l0.1-0.1l0.4,0.4l-0.1,0.1l-0.1-0.1L58.4,13.5L58.4,13.5z M58.2,13.5
							l0.1-0.1l0.1,0.1L58.2,13.5L58.2,13.5z M58.2,13.6l0.1-0.1l0.1,0.1L58.2,13.6L58.2,13.6z M58,13.9l0.2-0.2l0.1,0.1L58,13.9
							L58,13.9z M57.7,13.5l0.1-0.1l0.1,0.1L57.7,13.5L57.7,13.5z M57.7,13.7l0.1-0.1l0.2,0.3L57.9,14L57.7,13.7z"/>
						<path class="st11" d="M58.3,14.4l0.2-0.2L58.3,14l0.2-0.2l0.1,0.1L58.5,14l0.2,0.2l0.2-0.2l-0.1-0.1l0.1-0.1l0.1,0.1l0.1-0.1
							l0.1,0.1l-0.5,0.3l0.1,0.1l-0.1,0.1l-0.1-0.1L58.3,14.4L58.3,14.4z M58.6,13.9l0.1-0.1l0.1,0.1L58.6,13.9L58.6,13.9z"/>
						<path class="st11" d="M59,14.4l0.4-0.2l0.4,0.4l-0.1,0.1l-0.3-0.4l-0.1,0.1l0.2,0.3l-0.1,0.1L59,14.4z M59,15l0.4-0.3l0.1,0.1
							L59,15L59,15z M58.6,14.6l0.1-0.1l0.1,0.1L58.6,14.6L58.6,14.6z M58.6,14.8l0.1-0.1L59,15l-0.1,0.1L58.6,14.8z"/>
						<path class="st11" d="M59.9,14.9l0.1-0.1l0.2,0.2L60,15.1L59.9,14.9z M59.7,14.9l0.1-0.1l0.1,0.1L59.7,14.9L59.7,14.9z
							 M59.1,15.2l0.5-0.3l0.1,0.1L59.5,15l0.2,0.3l-0.1,0.1l-0.2-0.3L59.1,15.2L59.1,15.2z M59.4,15.5l0.2-0.2l0.1,0.1L59.4,15.5
							L59.4,15.5z M59.1,15.3l0.1-0.1l0.2,0.3l-0.1,0.1L59.1,15.3z"/>
					</g>
				</g>
			</g>
		</g>
		<g>
			<path class="st7" d="M107.5,27.5h4.7l5.9,17.5l5.9-17.5h4.7l4.2,25.1h-4.6l-2.7-15.8l-5.4,15.8h-4.2l-5.3-15.8l-2.8,15.8h-4.7
				L107.5,27.5z"/>
			<path class="st7" d="M149.9,34h4.7v18.5h-4.7v-2c-0.9,0.9-1.8,1.5-2.8,1.9c-0.9,0.4-1.9,0.6-3,0.6c-2.4,0-4.5-0.9-6.3-2.8
				c-1.8-1.9-2.6-4.2-2.6-6.9c0-2.9,0.9-5.2,2.6-7c1.7-1.8,3.8-2.7,6.2-2.7c1.1,0,2.2,0.2,3.2,0.6c1,0.4,1.9,1.1,2.7,1.9V34z
				 M145,37.8c-1.4,0-2.7,0.5-3.6,1.5c-1,1-1.4,2.3-1.4,3.9c0,1.6,0.5,2.9,1.5,4s2.2,1.5,3.6,1.5c1.5,0,2.7-0.5,3.7-1.5
				c1-1,1.5-2.3,1.5-4c0-1.6-0.5-2.9-1.5-3.9C147.7,38.3,146.5,37.8,145,37.8z"/>
			<path class="st7" d="M159.3,34h4.7v1.9c1.1-0.9,2-1.5,2.9-1.9c0.9-0.3,1.7-0.5,2.6-0.5c1.9,0,3.4,0.6,4.7,1.9
				c1.1,1.1,1.6,2.7,1.6,4.8v12.2h-4.6v-8.1c0-2.2-0.1-3.7-0.3-4.4s-0.5-1.3-1-1.7c-0.5-0.4-1.1-0.6-1.8-0.6c-0.9,0-1.8,0.3-2.4,0.9
				c-0.7,0.6-1.2,1.5-1.4,2.6c-0.1,0.6-0.2,1.8-0.2,3.8v7.4h-4.7V34z"/>
			<path class="st7" d="M182.3,26.4c0.8,0,1.5,0.3,2.1,0.9c0.6,0.6,0.9,1.3,0.9,2.1c0,0.8-0.3,1.5-0.9,2.1c-0.6,0.6-1.3,0.9-2.1,0.9
				c-0.8,0-1.5-0.3-2.1-0.9s-0.9-1.3-0.9-2.2c0-0.8,0.3-1.5,0.9-2.1S181.4,26.4,182.3,26.4z M179.9,34h4.7v18.5h-4.7V34z"/>
			<path class="st7" d="M188.4,26.8h4.7v25.7h-4.7V26.8z"/>
			<path class="st7" d="M196.8,26.8h4.7v25.7h-4.7V26.8z"/>
			<path class="st7" d="M219.5,34h4.7v18.5h-4.7v-2c-0.9,0.9-1.8,1.5-2.8,1.9c-0.9,0.4-1.9,0.6-3,0.6c-2.4,0-4.5-0.9-6.3-2.8
				c-1.8-1.9-2.6-4.2-2.6-6.9c0-2.9,0.9-5.2,2.6-7c1.7-1.8,3.8-2.7,6.2-2.7c1.1,0,2.2,0.2,3.2,0.6c1,0.4,1.9,1.1,2.7,1.9V34z
				 M214.6,37.8c-1.4,0-2.7,0.5-3.6,1.5c-1,1-1.4,2.3-1.4,3.9c0,1.6,0.5,2.9,1.5,4s2.2,1.5,3.6,1.5c1.5,0,2.7-0.5,3.7-1.5
				c1-1,1.5-2.3,1.5-4c0-1.6-0.5-2.9-1.5-3.9C217.3,38.3,216.1,37.8,214.6,37.8z"/>
			<path class="st7" d="M240.4,36.6l-2.9,2.9c-1.2-1.2-2.2-1.7-3.2-1.7c-0.5,0-0.9,0.1-1.2,0.3c-0.3,0.2-0.4,0.5-0.4,0.8
				c0,0.2,0.1,0.5,0.3,0.7c0.2,0.2,0.7,0.5,1.4,0.9l1.7,0.9c1.8,0.9,3,1.8,3.7,2.7c0.7,0.9,1,2,1,3.2c0,1.6-0.6,3-1.8,4.1
				c-1.2,1.1-2.9,1.7-4.9,1.7c-2.7,0-4.9-1.1-6.5-3.2l2.9-3.1c0.5,0.6,1.2,1.1,1.9,1.5c0.7,0.4,1.4,0.6,2,0.6c0.6,0,1.1-0.1,1.5-0.4
				c0.4-0.3,0.6-0.6,0.6-1c0-0.7-0.7-1.4-2-2.1l-1.6-0.8c-3-1.5-4.5-3.4-4.5-5.7c0-1.5,0.6-2.7,1.7-3.8c1.1-1,2.6-1.6,4.4-1.6
				c1.2,0,2.4,0.3,3.4,0.8C238.7,34.8,239.6,35.6,240.4,36.6z"/>
			<path class="st7" d="M273.2,26.8v25.7h-2.4v-3.2c-1,1.2-2.1,2.1-3.4,2.7c-1.3,0.6-2.6,0.9-4.1,0.9c-2.6,0-4.9-1-6.8-2.9
				c-1.9-1.9-2.8-4.2-2.8-6.9c0-2.7,0.9-5,2.8-6.8c1.9-1.9,4.2-2.8,6.8-2.8c1.5,0,2.9,0.3,4.2,1c1.2,0.6,2.3,1.6,3.3,2.9V26.8H273.2
				z M263.6,35.8c-1.3,0-2.6,0.3-3.7,1c-1.1,0.7-2,1.6-2.7,2.7c-0.7,1.2-1,2.4-1,3.7c0,1.3,0.3,2.6,1,3.7c0.7,1.2,1.6,2.1,2.7,2.8
				c1.1,0.7,2.4,1,3.7,1c1.3,0,2.6-0.3,3.7-1c1.2-0.7,2.1-1.5,2.7-2.7c0.6-1.1,1-2.4,1-3.8c0-2.1-0.7-3.9-2.1-5.4
				C267.4,36.5,265.7,35.8,263.6,35.8z"/>
			<path class="st7" d="M294.4,46.4l2,1.1c-0.7,1.3-1.4,2.3-2.3,3.1c-0.9,0.8-1.9,1.4-2.9,1.8c-1.1,0.4-2.3,0.6-3.7,0.6
				c-3,0-5.4-1-7.1-3c-1.7-2-2.6-4.2-2.6-6.7c0-2.4,0.7-4.4,2.2-6.3c1.8-2.3,4.3-3.5,7.4-3.5c3.2,0,5.7,1.2,7.6,3.6
				c1.4,1.7,2,3.8,2.1,6.3h-16.8c0,2.2,0.7,3.9,2.1,5.3c1.3,1.4,3,2.1,5,2.1c1,0,1.9-0.2,2.8-0.5c0.9-0.3,1.7-0.8,2.3-1.3
				C292.9,48.5,293.6,47.6,294.4,46.4z M294.4,41.4c-0.3-1.3-0.8-2.3-1.4-3c-0.6-0.8-1.4-1.4-2.4-1.8c-1-0.5-2.1-0.7-3.2-0.7
				c-1.8,0-3.4,0.6-4.7,1.8c-1,0.9-1.7,2.1-2.2,3.8H294.4z"/>
			<path class="st12" d="M164.7,64.3l-3.4,3.2c-2.3-2.4-4.9-3.6-7.7-3.6c-2.4,0-4.4,0.8-6.1,2.5s-2.5,3.7-2.5,6.1
				c0,1.7,0.4,3.2,1.1,4.5c0.7,1.3,1.8,2.3,3.1,3.1c1.3,0.7,2.8,1.1,4.5,1.1c1.4,0,2.7-0.3,3.8-0.8c1.2-0.5,2.4-1.5,3.8-2.8l3.3,3.4
				c-1.9,1.8-3.6,3.1-5.3,3.8c-1.7,0.7-3.6,1-5.7,1c-3.9,0-7.1-1.2-9.6-3.7c-2.5-2.5-3.8-5.6-3.8-9.5c0-2.5,0.6-4.7,1.7-6.7
				c1.1-1.9,2.8-3.5,4.9-4.7c2.1-1.2,4.4-1.8,6.9-1.8c2.1,0,4.1,0.4,6,1.3S163.3,62.6,164.7,64.3z"/>
			<path class="st12" d="M177.2,65.9c1.8,0,3.4,0.4,5,1.3c1.6,0.9,2.8,2.1,3.6,3.6c0.9,1.5,1.3,3.1,1.3,4.9c0,1.7-0.4,3.4-1.3,4.9
				c-0.9,1.5-2.1,2.7-3.6,3.6c-1.5,0.9-3.2,1.3-5,1.3c-2.7,0-5-0.9-6.9-2.8c-1.9-1.9-2.8-4.2-2.8-6.9c0-2.9,1.1-5.3,3.2-7.2
				C172.6,66.7,174.7,65.9,177.2,65.9z M177.2,70.3c-1.5,0-2.7,0.5-3.6,1.5c-1,1-1.5,2.3-1.5,3.9c0,1.6,0.5,2.9,1.4,3.9
				c1,1,2.2,1.5,3.6,1.5c1.5,0,2.7-0.5,3.7-1.5c1-1,1.5-2.3,1.5-3.9c0-1.6-0.5-2.9-1.4-3.9C179.9,70.8,178.7,70.3,177.2,70.3z"/>
			<path class="st12" d="M190.9,66.4h4.7v1.9c1.1-0.9,2-1.5,2.9-1.9c0.9-0.3,1.7-0.5,2.6-0.5c1.9,0,3.4,0.6,4.7,1.9
				c1.1,1.1,1.6,2.7,1.6,4.8v12.2h-4.6v-8.1c0-2.2-0.1-3.7-0.3-4.4s-0.5-1.3-1-1.7c-0.5-0.4-1.1-0.6-1.8-0.6c-0.9,0-1.8,0.3-2.4,0.9
				c-0.7,0.6-1.2,1.5-1.4,2.6c-0.1,0.6-0.2,1.8-0.2,3.8v7.4h-4.7V66.4z"/>
			<path class="st12" d="M212.5,59.5h4.7v6.8h2.8v4h-2.8v14.5h-4.7V70.4h-2.4v-4h2.4V59.5z"/>
			<path class="st12" d="M221.4,66.4h4v2.3c0.4-0.9,1-1.6,1.7-2.1c0.7-0.5,1.5-0.7,2.4-0.7c0.6,0,1.2,0.2,1.9,0.5l-1.5,4
				c-0.5-0.3-1-0.4-1.4-0.4c-0.7,0-1.3,0.4-1.8,1.3c-0.5,0.9-0.7,2.6-0.7,5.2l0,0.9v7.5h-4.7V66.4z"/>
			<path class="st12" d="M242.5,65.9c1.8,0,3.4,0.4,5,1.3c1.6,0.9,2.8,2.1,3.6,3.6c0.9,1.5,1.3,3.1,1.3,4.9c0,1.7-0.4,3.4-1.3,4.9
				c-0.9,1.5-2.1,2.7-3.6,3.6c-1.5,0.9-3.2,1.3-5,1.3c-2.7,0-5-0.9-6.9-2.8c-1.9-1.9-2.8-4.2-2.8-6.9c0-2.9,1.1-5.3,3.2-7.2
				C237.9,66.7,240.1,65.9,242.5,65.9z M242.6,70.3c-1.5,0-2.7,0.5-3.6,1.5c-1,1-1.5,2.3-1.5,3.9c0,1.6,0.5,2.9,1.4,3.9
				c1,1,2.2,1.5,3.6,1.5c1.5,0,2.7-0.5,3.7-1.5c1-1,1.5-2.3,1.5-3.9c0-1.6-0.5-2.9-1.4-3.9C245.3,70.8,244.1,70.3,242.6,70.3z"/>
			<path class="st12" d="M255.8,59.2h4.7v25.7h-4.7V59.2z"/>
		</g>
	</g>
</g>
</svg>
