<?xml version="1.0" encoding="utf-8"?>
<!-- Generator: Adobe Illustrator 25.2.0, SVG Export Plug-In . SVG Version: 6.00 Build 0)  -->
<svg version="1.1" id="Capa_1" xmlns="http://www.w3.org/2000/svg" xmlns:xlink="http://www.w3.org/1999/xlink" x="0px" y="0px"
	 viewBox="0 0 300 288" style="enable-background:new 0 0 300 288;" xml:space="preserve">
<style type="text/css">
	.st0{clip-path:url(#SVGID_1_);}
	.st1{clip-path:url(#SVGID_2_);}
	.st2{opacity:0.2;}
	.st3{clip-path:url(#SVGID_3_);fill:#979898;}
	.st4{fill:#9A9331;}
	.st5{fill:#F6E83D;}
	.st6{fill:#121327;}
	.st7{fill:#0971B7;stroke:#0971B7;stroke-miterlimit:10;}
	.st8{fill:#671415;}
	.st9{fill:#E63630;}
	.st10{fill:#FFFFFF;}
	.st11{fill:#221E20;}
</style>
<g>
	<g>
		<defs>
			<rect id="SVGID_7_" x="-6" y="5.3" width="311.8" height="354"/>
		</defs>
		<clipPath id="SVGID_1_">
			<use xlink:href="#SVGID_7_"  style="overflow:visible;"/>
		</clipPath>
		<g class="st0">
			<defs>
				<rect id="SVGID_9_" x="-6" y="5.3" width="311.8" height="354"/>
			</defs>
			<clipPath id="SVGID_2_">
				<use xlink:href="#SVGID_9_"  style="overflow:visible;"/>
			</clipPath>
			<g class="st1">
				<g class="st2">
					<g>
						<defs>
							<rect id="SVGID_11_" x="13.8" y="236.4" width="271" height="19.5"/>
						</defs>
						<clipPath id="SVGID_3_">
							<use xlink:href="#SVGID_11_"  style="overflow:visible;"/>
						</clipPath>
						<path class="st3" d="M284.7,246.1c0-5.4-60.7-9.8-135.5-9.8c-74.8,0-135.5,4.4-135.5,9.8c0,5.4,60.7,9.8,135.5,9.8
							C224.1,255.9,284.7,251.5,284.7,246.1"/>
					</g>
				</g>
				<path class="st4" d="M186,74.9C166.5,112.1,104.1,181.8,59,176.1c-0.5,3.9-0.5,7.7,0,11.3C97.8,202.6,177.3,104,186,74.9"/>
				<path class="st5" d="M59,176.1c4-34.7,43.7-81.5,82.4-111.1c11.9-9.1,47.7-35.9,47.7-35.9l-11.5-10.7c0,0-35.4,21.8-46.1,29.3
					C64,94.8,26.6,170.5,59,187.4C58.5,183.9,58.5,180.1,59,176.1"/>
				<path class="st6" d="M121.2,216.1c44.3-23.3,127.2-97.5,120.5-151.3c4.7-0.5,9.2-0.6,13.4,0C273.2,111,155.8,205.7,121.2,216.1"
					/>
				<path class="st7" d="M241.7,64.8c-45.2,3.3-102.8,51.6-134.5,97.8L68.8,215l-14.5-10.6l34.6-50.1
					c60.4-84.2,146.1-128,166.2-89.5C250.9,64.2,246.4,64.5,241.7,64.8"/>
				<path class="st8" d="M260.2,135c-19.5,37.2-81.9,106.9-127.1,101.2c-0.5,4-0.5,7.7,0,11.3C171.9,262.7,251.4,164.1,260.2,135"/>
				<path class="st9" d="M133.1,236.2c4-34.7,44.4-80.7,82.4-111.1c11.7-9.3,48.9-38.4,48.9-38.4L248,79.2c0,0-29.7,21.7-39.7,28.7
					c-72.5,51.3-107.5,122.7-75.2,139.6C132.6,244,132.7,240.2,133.1,236.2"/>
				<path class="st10" d="M53.4,204.6l5.2,3.8c0,0,0,0,0,0l1.5-2.1c0.1-0.2,0.2-0.1,0.3,0c0.1,0.1,0.2,0.1,0.1,0.3l-1.5,2.1
					c0,0,0,0,0,0c0,0,0,0,0,0l4.2,3l1.5-2c0.1-0.1,0.2,0,0.3,0c0.1,0.1,0.2,0.1,0.1,0.2l-1.5,2l4.9,3.5l20.1-27.1l-15.2-11.1
					L53.4,204.6z M56.8,205.7c0,0-0.1,0.1-0.1,0.1c0-0.2,0-0.4,0.1-0.6c0.2-1.4,0.5-2.8,0.7-4.4c0.4,0.4,0.2,0.7,0.2,1
					c-0.2,1.2-0.4,2.3-0.5,3.5c0,0,0,0,0,0C56.9,205.5,56.8,205.6,56.8,205.7 M65.6,212c0.1-0.9,0.3-1.9,0.4-2.8
					c0-0.3,0.2-0.7-0.2-0.9c-0.3-0.2-0.6,0-0.8,0.2c-0.8,0.4-1.6,0.9-2.4,1.2c-1,0.4-1.6,0-1.5-1c0.1-0.9,0.3-1.7,0.4-2.6
					c0.1-0.3,0.1-0.7-0.2-0.9c-0.3-0.3-0.6,0-0.9,0.1c-0.7,0.4-1.4,0.8-2.2,1.2c0,0-0.1,0-0.1,0c0-0.1,0-0.3,0-0.4
					c0.7-0.3,1.4-0.7,2-1.1c0.4-0.2,0.8-0.5,1.3-0.2c0.5,0.3,0.3,0.8,0.3,1.3c-0.1,0.8-0.3,1.7-0.4,2.5c-0.1,0.8,0.2,1.1,1,0.8
					c0.8-0.4,1.6-0.8,2.4-1.2c0.4-0.2,0.8-0.4,1.2-0.1c0.4,0.3,0.3,0.7,0.3,1.1c-0.1,0.8-0.3,1.6-0.4,2.4L65.6,212
					C65.6,212,65.6,212,65.6,212 M67.2,212.8c0.1-0.1,0.1-0.3,0.1-0.4c0.9-0.5,1.8-0.9,2.7-1.4c0.3-0.1,0.5-0.4,1-0.1
					C69.7,211.5,68.5,212.2,67.2,212.8 M68.5,210.6c-0.8,0.4-1.3-0.1-1.2-1c0.1-0.9,0.3-1.9,0.4-2.8c0-0.3,0.1-0.7-0.2-0.9
					c-0.3-0.2-0.6,0-0.8,0.2c-0.8,0.4-1.6,0.9-2.4,1.2c-1,0.4-1.6,0-1.5-1c0.1-0.9,0.3-1.7,0.4-2.6c0.1-0.3,0.1-0.7-0.2-0.9
					c-0.3-0.3-0.6,0-0.9,0.1c-0.7,0.4-1.4,0.8-2.2,1.1c-0.4,0.2-0.9,0.4-1.3,0.1c-0.4-0.3-0.3-0.8-0.3-1.2c0.2-1.4,0.5-2.8,0.7-4.4
					c0.4,0.4,0.2,0.7,0.2,1c-0.2,1.2-0.4,2.3-0.5,3.5c-0.1,0.9,0.2,1.2,1.1,0.8c0.7-0.3,1.4-0.8,2.2-1.1c0.4-0.2,0.8-0.5,1.3-0.2
					c0.5,0.3,0.3,0.8,0.3,1.3c-0.1,0.8-0.3,1.7-0.4,2.5c-0.1,0.8,0.2,1.1,1,0.8c0.8-0.4,1.6-0.8,2.4-1.2c0.4-0.2,0.8-0.4,1.2-0.1
					c0.4,0.3,0.3,0.7,0.3,1.1c-0.1,0.9-0.3,1.7-0.4,2.6c-0.1,1,0.2,1.2,1.1,0.8c1-0.5,2-1,3.1-1.6c0.3-0.1,0.5-0.4,1-0.1
					C71.3,209.2,69.9,210,68.5,210.6 M69.9,208.7c-0.8,0.4-1.3-0.1-1.2-1c0.1-0.9,0.3-1.9,0.4-2.8c0-0.3,0.1-0.7-0.2-0.9
					c-0.3-0.2-0.6,0-0.8,0.2c-0.8,0.4-1.6,0.9-2.4,1.2c-1,0.4-1.6,0-1.5-1c0.1-0.9,0.3-1.7,0.4-2.6c0.1-0.3,0.1-0.7-0.2-0.9
					c-0.3-0.3-0.6,0-0.9,0.1c-0.7,0.4-1.4,0.8-2.2,1.2c-0.4,0.2-0.9,0.4-1.3,0.1c-0.4-0.3-0.3-0.8-0.3-1.2c0.2-1.4,0.5-2.9,0.7-4.4
					c0.4,0.4,0.2,0.7,0.2,1c-0.2,1.2-0.4,2.3-0.6,3.5c-0.1,0.9,0.2,1.2,1.1,0.8c0.7-0.3,1.4-0.8,2.2-1.1c0.4-0.2,0.8-0.5,1.3-0.2
					c0.5,0.3,0.3,0.8,0.3,1.3c-0.1,0.8-0.3,1.7-0.4,2.5c-0.1,0.8,0.2,1.1,1,0.8c0.8-0.4,1.6-0.8,2.4-1.2c0.4-0.2,0.8-0.4,1.2-0.1
					c0.4,0.3,0.3,0.7,0.3,1.1c-0.1,0.9-0.3,1.7-0.4,2.6c-0.1,1,0.2,1.2,1.1,0.8c1-0.5,2-1,3.1-1.6c0.3-0.1,0.5-0.4,1-0.1
					C72.7,207.3,71.3,208,69.9,208.7 M74.9,204.9c-1,0.5-2,1-3,1.6c-0.4,0.2-0.8,0.4-1.2,0.1c-0.5-0.3-0.4-0.8-0.3-1.3
					c0.1-0.8,0.5-3.1,0.2-3.3c-0.3-0.3-0.6,0-0.9,0.1c-0.8,0.4-1.5,0.8-2.3,1.2c-1.1,0.5-1.6,0.1-1.5-1.1c0.1-0.6,0.4-2.4,0.5-2.8
					c0.1-0.8-0.2-1-0.9-0.7c-0.8,0.4-1.6,0.8-2.3,1.2c-0.4,0.2-0.9,0.4-1.3,0.1c-0.4-0.3-0.3-0.8-0.3-1.3c0.2-1.4,0.5-2.8,0.7-4.2
					c0.4,0.2,0.2,0.5,0.2,0.7c-0.2,1.2-0.4,2.4-0.6,3.6c-0.1,0.4-0.2,0.8,0.2,1c0.4,0.2,0.7,0,1.1-0.2c0.6-0.3,1.2-0.7,1.9-1
					c0.5-0.2,0.9-0.6,1.5-0.2c0.5,0.4,0.3,1,0.2,1.5c0,0.2-0.1,0.4-0.2,0.6c-0.1,0.5-0.5,2.2,0,2.5c0.4,0.3,0.8,0,1.1-0.2
					c0.7-0.3,1.3-0.7,2-1.1c0.4-0.2,0.8-0.5,1.2-0.1c0.4,0.3,0.3,0.8,0.3,1.2c-0.1,0.7-0.3,1.4-0.4,2.2c-0.1,0.4-0.3,0.9,0.1,1.2
					c0.4,0.3,3.2-1.3,4.2-1.8c0.2-0.1,0.4-0.3,0.7-0.2C75.5,204.7,75.1,204.7,74.9,204.9 M77.3,202.3c-1.5,0.7-2.9,1.5-4.4,2.1
					c-0.7,0.3-1.2-0.2-1.1-1.1c0.1-0.9,0.3-1.7,0.4-2.6c0.1-0.3,0.2-0.7-0.1-1c-0.4-0.3-0.7,0-1,0.2c-0.7,0.4-1.4,0.8-2.2,1.1
					c-1.1,0.5-1.7,0.1-1.5-1.1c0.1-0.9,0.3-1.7,0.4-2.6c0-0.3,0.2-0.7-0.2-0.9c-0.3-0.2-0.6,0-0.8,0.1c-0.8,0.4-1.6,0.8-2.3,1.2
					c-0.4,0.2-0.8,0.3-1.3,0.1c-0.4-0.3-0.4-0.8-0.3-1.2c0.2-1.4,0.5-2.9,0.7-4.4c0.4,0.3,0.2,0.6,0.2,0.8c-0.2,1.2-0.4,2.4-0.6,3.6
					c0,0.3-0.1,0.6,0.1,0.8c0.3,0.2,0.6,0.1,0.9,0c0.7-0.4,1.5-0.8,2.2-1.1c0.4-0.2,0.9-0.5,1.4-0.2c0.5,0.4,0.3,0.9,0.2,1.4
					c-0.1,0.8-0.3,1.6-0.4,2.4c-0.1,0.8,0.2,1.1,1,0.7c0.8-0.4,1.6-0.8,2.3-1.2c0.4-0.2,0.8-0.4,1.2-0.1c0.4,0.3,0.3,0.8,0.3,1.2
					c-0.1,0.9-0.3,1.7-0.4,2.6c-0.1,0.9,0.2,1.1,1,0.7c1.1-0.5,2.1-1.1,3.1-1.6c0.3-0.1,0.5-0.4,0.9-0.3
					C77.2,202.1,77.3,202.2,77.3,202.3 M78.8,200.1c-1.5,0.7-2.9,1.5-4.4,2.1c-0.7,0.3-1.2-0.2-1.1-1.1c0.1-0.9,0.3-1.7,0.4-2.6
					c0.1-0.3,0.2-0.7-0.1-1c-0.4-0.3-0.7,0-1,0.2c-0.7,0.4-1.4,0.8-2.2,1.1c-1.1,0.5-1.7,0.1-1.5-1.1c0.1-0.9,0.3-1.7,0.4-2.6
					c0-0.3,0.2-0.7-0.2-0.9c-0.3-0.2-0.6,0-0.8,0.1c-0.8,0.4-1.5,0.8-2.3,1.2c-0.4,0.2-0.8,0.3-1.3,0.1c-0.4-0.3-0.4-0.8-0.3-1.2
					c0.2-1.4,0.5-2.9,0.7-4.4c0.4,0.3,0.2,0.6,0.2,0.8c-0.2,1.2-0.4,2.4-0.6,3.6c0,0.3-0.1,0.6,0.1,0.8c0.3,0.2,0.6,0.1,0.9,0
					c0.7-0.4,1.5-0.8,2.2-1.1c0.4-0.2,0.9-0.5,1.4-0.2c0.5,0.4,0.3,0.9,0.2,1.4c-0.1,0.8-0.3,1.6-0.4,2.4c-0.1,0.8,0.2,1.1,1,0.7
					c0.8-0.4,1.6-0.8,2.3-1.2c0.4-0.2,0.8-0.4,1.2-0.1c0.4,0.3,0.3,0.8,0.3,1.2c-0.1,0.9-0.3,1.7-0.4,2.6c-0.1,0.9,0.2,1.1,1,0.7
					c1.1-0.5,2.1-1.1,3.1-1.6c0.3-0.1,0.5-0.4,0.9-0.3C78.8,200,78.8,200,78.8,200.1 M80.3,198.2c-1.5,0.7-2.9,1.5-4.4,2.2
					c-0.7,0.3-1.2-0.2-1.1-1.1c0.1-0.9,0.3-1.7,0.4-2.6c0.1-0.3,0.2-0.7-0.1-1c-0.4-0.3-0.7,0-1,0.2c-0.7,0.4-1.4,0.8-2.2,1.1
					c-1.1,0.5-1.7,0.1-1.5-1.1c0.1-0.9,0.3-1.7,0.4-2.6c0.1-0.3,0.2-0.7-0.2-0.9c-0.3-0.2-0.6,0-0.8,0.1c-0.8,0.4-1.5,0.8-2.3,1.2
					c-0.4,0.2-0.8,0.3-1.3,0.1c-0.4-0.3-0.4-0.8-0.3-1.2c0.2-1.4,0.5-2.9,0.7-4.4c0.4,0.3,0.2,0.6,0.2,0.8c-0.2,1.2-0.4,2.4-0.6,3.6
					c-0.1,0.3-0.1,0.6,0.1,0.8c0.3,0.2,0.6,0.1,0.9,0c0.7-0.4,1.5-0.8,2.2-1.1c0.4-0.2,0.9-0.5,1.4-0.2c0.5,0.4,0.3,0.9,0.2,1.4
					c-0.1,0.8-0.3,1.6-0.4,2.4c-0.1,0.8,0.2,1.1,1,0.7c0.8-0.4,1.6-0.8,2.3-1.2c0.4-0.2,0.8-0.4,1.2-0.1c0.4,0.3,0.3,0.8,0.3,1.2
					c-0.1,0.9-0.3,1.7-0.4,2.6c-0.1,0.9,0.2,1.1,1,0.7c1.1-0.5,2.1-1.1,3.1-1.6c0.3-0.1,0.5-0.4,0.9-0.3
					C80.2,198,80.2,198.1,80.3,198.2"/>
				<polygon class="st11" points="81.2,191.4 81.1,191.7 80.8,191.5 80,192.5 80.3,192.7 80.1,193 79.8,192.8 79.7,193.1 
					79.4,192.9 80.5,191.3 80.3,191.1 80.5,190.9 				"/>
				<path class="st11" d="M78.8,192l-0.2,0.3l-0.8-0.6l0.2-0.3L78.8,192z M78.4,191l-0.4,0.5l-0.3-0.2l0.4-0.5L78.4,191z M79.3,192
					l-0.2,0.3l-0.3-0.2l0.2-0.3L79.3,192z M78.8,190.9l-0.2,0.3l-0.3-0.2l0.2-0.3L78.8,190.9z M79.3,190.8l-0.2,0.3l-0.3-0.2
					l0.2-0.3L79.3,190.8z M80.2,190.7l-0.2,0.3l-0.3-0.2l-0.2,0.3l-0.3-0.2l0.2-0.3l-0.8-0.6l0.2-0.3L80.2,190.7z"/>
				<path class="st11" d="M76.9,190.3l-0.2,0.3l0.8,0.6l-0.2,0.3l-1.3-0.9l0.2-0.3l0.3,0.2l0.2-0.3L76.9,190.3z M77.4,190.2
					l-0.2,0.3l-0.3-0.2l0.2-0.3L77.4,190.2z M77.3,189.7l-0.2,0.3l-0.3-0.2l0.2-0.3L77.3,189.7z M77.4,189l-0.4,0.5l-0.3-0.2
					l0.4-0.5L77.4,189z M78.4,189.8l-0.2,0.3l-0.3-0.2l0.2-0.3L78.4,189.8z M78.4,189.3l-0.2,0.3l-0.8-0.6l0.2-0.3L78.4,189.3z"/>
				<path class="st11" d="M76.3,187.8l-0.4,0.5l0.8,0.6l-0.4,0.5l-0.3-0.2l0.2-0.3l-0.5-0.4l-0.4,0.5l0.3,0.2l-0.2,0.3l-0.3-0.2
					l-0.2,0.3l-0.3-0.2l0.8-1l-0.3-0.2l0.2-0.3l0.3,0.2l0.4-0.5L76.3,187.8z M76.1,189.3l-0.2,0.3l-0.3-0.2l0.2-0.3L76.1,189.3z"/>
				<path class="st11" d="M74.8,188.3l-0.6,0.8l-1.3-0.9l0.2-0.3l1,0.8l0.2-0.3l-0.8-0.6l0.2-0.3L74.8,188.3z M74.3,186.8l-0.6,0.8
					l-0.3-0.2l0.6-0.8L74.3,186.8z M75.3,187.5l-0.2,0.3l-0.3-0.2l0.2-0.3L75.3,187.5z M75.2,187.1l-0.2,0.3l-0.8-0.6l0.2-0.3
					L75.2,187.1z"/>
				<path class="st11" d="M72.3,187.3l-0.2,0.3l-0.5-0.4l0.2-0.3L72.3,187.3z M72.7,187.2l-0.2,0.3l-0.3-0.2l0.2-0.3L72.7,187.2z
					 M73.8,186.4l-0.8,1l-0.3-0.2l0.2-0.3l-0.8-0.6l0.2-0.3l0.8,0.6l0.4-0.5L73.8,186.4z M72.7,185.6l-0.4,0.5l-0.3-0.2l0.4-0.5
					L72.7,185.6z M73.7,185.9l-0.2,0.3l-0.8-0.6l0.2-0.3L73.7,185.9z"/>
				<path class="st10" d="M264.4,86.8l-6.9-3.2l-3.2,2.4c-0.2,0.1-0.3,0.1-0.4,0c-0.1-0.1-0.2-0.1,0-0.3c0,0,3.4-2.5,3.1-2.4l-4.4-2
					l-2.6,1.9c-0.1,0.1-0.2,0-0.3,0c-0.1-0.1-0.1-0.1,0-0.2l2.6-1.9l-4.3-2l-28.6,20.8l12,12.8L264.4,86.8z M259.1,87
					c0.1,0,0.1-0.1,0.2-0.1c0,0.2-0.2,0.4-0.2,0.5c-0.7,1.4-1.5,2.8-2.3,4.4c-0.4-0.5-0.1-0.7,0.1-1c0.6-1.2,1.2-2.3,1.8-3.4
					c0,0,0,0,0,0C258.8,87.2,258.9,87.1,259.1,87 M249.8,81.4c-0.4,0.7-0.9,1.5-1.4,2.2c-0.1,0.3-0.4,0.5-0.1,0.7
					c0.3,0.2,0.6,0,1-0.2c1.1-0.4,2.1-0.8,3.2-1.1c1.3-0.4,1.9-0.1,1.4,0.8c-0.4,0.7-0.9,1.5-1.4,2.3c-0.2,0.3-0.4,0.6-0.1,0.8
					c0.3,0.2,0.8,0,1.1-0.1c1-0.3,2.1-0.7,3.2-1.1c0,0,0.1,0,0.1,0c-0.1,0.1-0.1,0.2-0.2,0.4c-1,0.3-2,0.7-3,1
					c-0.6,0.2-1.2,0.5-1.7,0.2c-0.4-0.3-0.1-0.8,0.1-1.2c0.4-0.7,1-1.4,1.4-2.2c0.4-0.7,0.1-0.9-1-0.6c-1.1,0.4-2.2,0.7-3.2,1.1
					c-0.5,0.2-1,0.3-1.3,0.1c-0.4-0.2-0.1-0.6,0.1-0.9c0.4-0.7,0.9-1.3,1.3-1.9L249.8,81.4C249.8,81.4,249.8,81.4,249.8,81.4
					 M248.3,80.9c-0.1,0.1-0.2,0.2-0.3,0.3c-1.1,0.4-2.2,0.8-3.3,1.2c-0.3,0.1-0.7,0.3-1,0.1C245.2,82,246.7,81.4,248.3,80.9
					 M246.2,82.7c1-0.3,1.4,0.1,1,0.8c-0.4,0.8-0.9,1.5-1.4,2.3c-0.2,0.3-0.4,0.6-0.1,0.8c0.3,0.2,0.6,0,1-0.1
					c1.1-0.3,2.1-0.7,3.2-1c1.3-0.4,1.9,0,1.4,0.9c-0.4,0.8-0.9,1.6-1.4,2.4c-0.2,0.3-0.4,0.6-0.1,0.8c0.3,0.3,0.8,0.1,1.1-0.1
					c1-0.3,2.1-0.7,3.2-1c0.6-0.2,1.3-0.3,1.8,0c0.5,0.3,0.2,0.8,0,1.2c-0.8,1.4-1.5,2.9-2.4,4.5c-0.4-0.5,0-0.8,0.1-1
					c0.6-1.2,1.3-2.3,1.9-3.5c0.5-0.9,0-1.2-1.2-0.9c-1.1,0.3-2.1,0.7-3.2,1c-0.6,0.2-1.2,0.4-1.7,0.1c-0.4-0.4-0.1-0.8,0.1-1.2
					c0.4-0.8,0.9-1.5,1.3-2.3c0.4-0.7,0.1-1-1-0.7c-1.1,0.3-2.2,0.7-3.2,1.1c-0.5,0.2-1,0.3-1.3,0.1c-0.4-0.3-0.1-0.6,0.1-1
					c0.4-0.7,0.9-1.4,1.3-2.2c0.4-0.8,0.1-1-0.9-0.6c-1.2,0.4-2.5,0.9-3.7,1.3c-0.3,0.1-0.7,0.3-1,0.1
					C242.8,83.9,244.4,83.3,246.2,82.7 M244,84.3c0.9-0.3,1.4,0.1,1,0.8c-0.4,0.8-0.9,1.6-1.4,2.3c-0.2,0.3-0.4,0.6-0.1,0.8
					c0.2,0.2,0.6,0,0.9-0.1c1-0.3,2.1-0.7,3.2-1c1.3-0.4,1.9,0,1.4,1c-0.4,0.8-0.9,1.6-1.4,2.4c-0.2,0.3-0.4,0.6-0.1,0.9
					c0.3,0.3,0.7,0.1,1.1,0c1-0.3,2.1-0.7,3.1-1c0.6-0.2,1.3-0.3,1.8,0c0.5,0.3,0.2,0.8,0,1.2c-0.8,1.4-1.6,2.9-2.5,4.5
					c-0.3-0.5,0-0.8,0.1-1.1c0.6-1.2,1.3-2.3,1.9-3.5c0.5-0.9,0.1-1.2-1.2-0.9c-1.1,0.3-2.1,0.7-3.1,1c-0.6,0.2-1.2,0.4-1.7,0.1
					c-0.4-0.4-0.1-0.8,0.1-1.3c0.4-0.8,0.9-1.5,1.4-2.3c0.4-0.8,0.1-1-0.9-0.7c-1.1,0.3-2.1,0.7-3.2,1c-0.5,0.1-1,0.3-1.3,0.1
					c-0.3-0.3-0.1-0.6,0.1-1c0.4-0.7,0.9-1.5,1.3-2.2c0.5-0.8,0.2-1-0.9-0.7c-1.2,0.4-2.4,0.8-3.6,1.3c-0.3,0.1-0.6,0.3-1,0.1
					C240.7,85.4,242.3,84.8,244,84.3 M237.7,87.4c1.2-0.4,2.4-0.8,3.6-1.2c0.5-0.2,1-0.3,1.3-0.1c0.4,0.3,0.1,0.7-0.1,1.1
					c-0.4,0.7-1.7,2.6-1.5,2.9c0.2,0.2,0.6,0,1-0.1c1-0.3,2-0.7,3-1c1.4-0.4,1.8,0,1.3,1c-0.3,0.5-1.4,2.2-1.5,2.6
					c-0.4,0.7-0.1,1,0.9,0.7c1.1-0.3,2.2-0.7,3.3-1c0.6-0.2,1.3-0.3,1.7,0c0.5,0.4,0.2,0.9-0.1,1.3c-0.8,1.4-1.6,2.9-2.5,4.4
					c-0.4-0.3-0.1-0.5,0-0.7c0.7-1.2,1.4-2.4,2-3.6c0.2-0.4,0.6-0.8,0.1-1.1c-0.4-0.3-0.9-0.1-1.4,0.1c-0.9,0.3-1.8,0.5-2.6,0.8
					c-0.6,0.2-1.4,0.5-1.8,0.1c-0.4-0.4,0-1,0.3-1.4c0.1-0.2,0.3-0.4,0.4-0.6c0.2-0.4,1.3-2,0.9-2.3c-0.4-0.3-0.9,0-1.4,0.1
					c-0.9,0.3-1.7,0.6-2.6,0.8c-0.5,0.2-1,0.4-1.3,0.1c-0.3-0.3-0.1-0.7,0.2-1.1c0.4-0.6,0.8-1.2,1.1-1.8c0.2-0.4,0.6-0.8,0.3-1
					c-0.3-0.2-3.6,1-4.8,1.4c-0.2,0.1-0.5,0.2-0.7,0.1C237,87.5,237.4,87.5,237.7,87.4 M234.5,89.4c1.6-0.5,3.3-1.1,5-1.6
					c0.8-0.2,1.1,0.2,0.7,1c-0.4,0.7-0.9,1.5-1.4,2.2c-0.2,0.3-0.5,0.6-0.3,0.9c0.3,0.3,0.8,0,1.2-0.1c0.9-0.3,1.8-0.6,2.7-0.9
					c1.4-0.4,1.9,0,1.3,1.1c-0.4,0.8-1,1.6-1.5,2.4c-0.2,0.3-0.5,0.6-0.2,0.9c0.3,0.2,0.6,0.1,1,0c1.1-0.3,2.1-0.6,3.2-1
					c0.6-0.2,1.2-0.3,1.6,0.1c0.5,0.3,0.2,0.8,0,1.2c-0.8,1.5-1.7,3-2.6,4.6c-0.4-0.4-0.1-0.7,0.1-0.9c0.7-1.3,1.4-2.5,2.1-3.7
					c0.2-0.3,0.4-0.6,0.1-0.9c-0.3-0.3-0.7-0.2-1.1-0.1c-1,0.3-2,0.6-3,0.9c-0.6,0.2-1.2,0.4-1.7,0c-0.4-0.4,0-0.9,0.3-1.4
					c0.4-0.8,1-1.5,1.4-2.3c0.4-0.8,0.1-1-0.9-0.7c-1,0.3-2,0.6-3,0.9c-0.5,0.2-1,0.3-1.3,0c-0.3-0.3,0-0.7,0.2-1.1
					c0.5-0.8,1-1.5,1.4-2.2c0.4-0.7,0.2-0.9-0.7-0.7c-1.2,0.4-2.4,0.8-3.6,1.2c-0.3,0.1-0.6,0.3-0.9,0.2
					C234.5,89.5,234.5,89.5,234.5,89.4 M232.2,91.1c1.6-0.5,3.2-1.1,4.9-1.6c0.8-0.2,1.1,0.2,0.6,1c-0.4,0.8-0.9,1.5-1.4,2.2
					c-0.2,0.3-0.5,0.6-0.3,0.9c0.3,0.3,0.7,0,1.1-0.1c0.9-0.3,1.8-0.6,2.7-0.8c1.4-0.4,1.8,0.1,1.2,1.2c-0.4,0.8-1,1.6-1.5,2.5
					c-0.2,0.3-0.5,0.6-0.2,0.9c0.2,0.2,0.6,0.1,1,0c1-0.3,2.1-0.6,3.2-0.9c0.6-0.1,1.1-0.2,1.5,0.1c0.4,0.4,0.2,0.8-0.1,1.3
					c-0.8,1.5-1.7,3-2.7,4.6c-0.4-0.4-0.1-0.7,0.1-0.9c0.7-1.3,1.5-2.5,2.2-3.8c0.2-0.3,0.4-0.6,0.1-0.9c-0.3-0.3-0.7-0.2-1.1-0.1
					c-1,0.3-2,0.6-3,0.9c-0.6,0.2-1.2,0.4-1.6,0c-0.4-0.4,0-0.9,0.3-1.4c0.5-0.8,1-1.5,1.4-2.3c0.4-0.8,0.1-1-0.8-0.8
					c-1,0.3-2,0.6-2.9,0.9c-0.5,0.1-1,0.3-1.3,0c-0.3-0.3,0-0.7,0.2-1.1c0.5-0.8,1-1.5,1.4-2.3c0.4-0.7,0.2-0.9-0.7-0.7
					c-1.2,0.4-2.4,0.8-3.6,1.2c-0.3,0.1-0.6,0.3-0.9,0.2C232.2,91.2,232.2,91.1,232.2,91.1 M230.2,92.6c1.6-0.5,3.2-1.1,4.8-1.5
					c0.8-0.2,1,0.2,0.6,1c-0.4,0.8-1,1.5-1.4,2.2c-0.2,0.3-0.5,0.6-0.3,0.9c0.2,0.3,0.7,0,1.1-0.1c0.9-0.3,1.8-0.6,2.7-0.8
					c1.3-0.4,1.8,0.1,1.2,1.2c-0.5,0.8-1,1.6-1.5,2.5c-0.2,0.3-0.5,0.6-0.2,0.9c0.2,0.2,0.6,0.1,0.9,0c1-0.3,2.1-0.6,3.1-0.9
					c0.5-0.1,1.1-0.2,1.5,0.1c0.4,0.4,0.2,0.9-0.1,1.3c-0.8,1.5-1.7,3-2.7,4.6c-0.3-0.4,0-0.7,0.1-0.9c0.7-1.3,1.5-2.6,2.2-3.8
					c0.2-0.3,0.4-0.6,0.2-0.9c-0.3-0.3-0.7-0.2-1.1-0.1c-1,0.3-2,0.6-2.9,0.8c-0.6,0.2-1.2,0.4-1.6,0c-0.4-0.4,0-1,0.3-1.4
					c0.5-0.8,1-1.5,1.4-2.3c0.4-0.8,0.2-1-0.8-0.8c-1,0.3-1.9,0.6-2.9,0.9c-0.5,0.1-1,0.3-1.3,0c-0.3-0.3,0-0.7,0.2-1.1
					c0.5-0.8,1-1.5,1.4-2.3c0.4-0.7,0.2-1-0.7-0.7c-1.2,0.4-2.4,0.8-3.5,1.1c-0.3,0.1-0.6,0.3-0.9,0.2
					C230.2,92.7,230.2,92.7,230.2,92.6"/>
				<polygon class="st11" points="225.8,99.8 226,99.5 226.2,99.7 227.2,98.8 227.1,98.6 227.3,98.4 227.5,98.5 227.8,98.3 
					227.9,98.5 226.3,99.9 226.5,100.1 226.2,100.3 				"/>
				<path class="st11" d="M228.1,99.2l0.3-0.3l0.5,0.5l-0.3,0.2L228.1,99.2z M228.1,100.2l0.5-0.5l0.2,0.2l-0.5,0.5L228.1,100.2z
					 M227.7,99.3L228,99l0.2,0.2l-0.3,0.2L227.7,99.3z M227.7,100.3l0.3-0.2l0.2,0.2l-0.3,0.2L227.7,100.3z M227.2,100.4l0.3-0.3
					l0.2,0.2l-0.3,0.2L227.2,100.4z M226.4,100.5l0.3-0.2l0.2,0.2l0.3-0.2l0.2,0.2l-0.3,0.2l0.5,0.5l-0.3,0.2L226.4,100.5z"/>
				<path class="st11" d="M229.2,100.9l0.3-0.3l-0.5-0.5l0.3-0.2l0.9,0.9l-0.3,0.3l-0.2-0.2l-0.3,0.3L229.2,100.9z M228.8,101
					l0.3-0.3l0.2,0.2l-0.3,0.3L228.8,101z M228.7,101.4l0.3-0.2l0.2,0.2l-0.3,0.3L228.7,101.4z M228.3,102.1l0.6-0.5l0.2,0.2
					l-0.6,0.5L228.3,102.1z M227.6,101.3l0.3-0.2l0.2,0.2l-0.3,0.3L227.6,101.3z M227.5,101.8l0.3-0.2l0.5,0.6l-0.3,0.2L227.5,101.8
					z"/>
				<path class="st11" d="M228.9,103.3l0.6-0.5l-0.5-0.6l0.6-0.5l0.2,0.2l-0.3,0.2l0.4,0.4l0.6-0.5l-0.2-0.2l0.3-0.2l0.2,0.2
					l0.3-0.3l0.2,0.2l-1.1,1l0.2,0.2l-0.3,0.2l-0.2-0.2l-0.6,0.5L228.9,103.3z M229.6,101.9l0.3-0.3l0.2,0.2l-0.3,0.3L229.6,101.9z"
					/>
				<path class="st11" d="M230.5,102.9l0.9-0.8l1,1l-0.3,0.3l-0.8-0.8l-0.3,0.3l0.6,0.6l-0.3,0.3L230.5,102.9z M230.4,104.5l0.9-0.8
					l0.2,0.2l-0.9,0.8L230.4,104.5z M229.7,103.7l0.3-0.3l0.2,0.2l-0.3,0.3L229.7,103.7z M229.6,104.1l0.3-0.2l0.5,0.6l-0.3,0.3
					L229.6,104.1z"/>
				<path class="st11" d="M232.7,104l0.3-0.3l0.4,0.4l-0.3,0.3L232.7,104z M232.2,104.1l0.3-0.3l0.2,0.2l-0.3,0.3L232.2,104.1z
					 M230.8,104.9l1.2-1.1l0.2,0.2l-0.3,0.3l0.6,0.7l-0.3,0.3l-0.6-0.7l-0.6,0.5L230.8,104.9z M231.6,105.8l0.6-0.5l0.2,0.2
					l-0.6,0.5L231.6,105.8z M230.7,105.4l0.3-0.3l0.6,0.6l-0.3,0.3L230.7,105.4z"/>
				<path class="st10" d="M189.1,29.2l-4.1-3.9c0,0,0,0,0,0l-1.9,1.4c-0.2,0.1-0.2,0.1-0.3,0c-0.1-0.1-0.1-0.1,0-0.3l1.9-1.3
					c0,0,0,0,0,0c0,0,0,0,0,0l-3.2-3l-1.9,1.3c-0.1,0.1-0.2,0-0.2-0.1c-0.1-0.1-0.1-0.1,0-0.2l1.9-1.3l-3.6-3.4l-29.4,18.4
					l11.6,14.4L189.1,29.2z M186.1,27.7c0,0,0.1-0.1,0.1-0.1c0,0.2-0.1,0.3-0.2,0.4c-0.5,1.1-1.1,2.2-1.7,3.5
					c-0.3-0.4,0-0.6,0.1-0.8c0.4-0.9,0.9-1.8,1.3-2.7c0,0,0,0,0,0C185.9,27.8,186,27.8,186.1,27.7 M179.3,21.4
					c-0.3,0.7-0.7,1.3-1.1,2c-0.1,0.2-0.3,0.5-0.1,0.7c0.2,0.2,0.5,0.1,0.8,0c0.9-0.2,1.7-0.4,2.6-0.5c1-0.2,1.5,0.2,1.1,1
					c-0.3,0.7-0.7,1.3-1,1.9c-0.1,0.2-0.3,0.5-0.1,0.7c0.2,0.3,0.6,0.1,0.9,0.1c0.8-0.2,1.6-0.4,2.4-0.5c0,0,0.1,0,0.1,0
					c-0.1,0.1-0.1,0.2-0.1,0.3c-0.7,0.1-1.5,0.3-2.2,0.5c-0.5,0.1-0.9,0.3-1.3-0.1c-0.3-0.3-0.1-0.7,0.1-1.1c0.3-0.6,0.7-1.2,1-1.9
					c0.3-0.6,0-0.9-0.8-0.7c-0.9,0.1-1.7,0.4-2.6,0.5c-0.4,0.1-0.8,0.2-1.1-0.1c-0.3-0.3-0.1-0.6,0-0.9c0.3-0.6,0.7-1.2,1-1.7
					L179.3,21.4C179.3,21.3,179.3,21.4,179.3,21.4 M178,20.5c-0.1,0.1-0.2,0.2-0.2,0.3c-1,0.2-1.9,0.4-2.9,0.6
					c-0.3,0.1-0.6,0.2-0.9-0.1C175.3,21,176.7,20.7,178,20.5 M176.2,21.9c0.8-0.1,1.2,0.3,0.9,1c-0.3,0.7-0.8,1.4-1.2,2
					c-0.1,0.2-0.3,0.5-0.1,0.7c0.2,0.2,0.5,0.1,0.8,0c0.9-0.2,1.8-0.4,2.6-0.5c1.1-0.2,1.5,0.2,1.1,1.1c-0.3,0.7-0.7,1.3-1.1,2
					c-0.1,0.2-0.3,0.5-0.1,0.8c0.2,0.3,0.6,0.1,0.9,0.1c0.8-0.2,1.6-0.4,2.4-0.5c0.5-0.1,0.9-0.1,1.3,0.2c0.4,0.3,0.1,0.7,0,1
					c-0.6,1.1-1.2,2.3-1.8,3.6c-0.3-0.4,0-0.6,0.1-0.9c0.5-0.9,1-1.9,1.4-2.8c0.4-0.7,0.1-1-0.9-0.9c-0.8,0.1-1.6,0.4-2.4,0.5
					c-0.5,0.1-1,0.3-1.3-0.1c-0.3-0.4-0.1-0.7,0.1-1.1c0.3-0.7,0.7-1.3,1.1-1.9c0.3-0.6,0.1-0.9-0.8-0.8c-0.9,0.2-1.8,0.4-2.6,0.6
					c-0.4,0.1-0.8,0.2-1.1-0.1c-0.3-0.3-0.1-0.6,0.1-0.9c0.4-0.6,0.8-1.3,1.1-1.9c0.4-0.7,0.1-1-0.8-0.8c-1.1,0.2-2.2,0.4-3.3,0.6
					c-0.3,0.1-0.6,0.2-0.9-0.1C173.2,22.4,174.7,22.1,176.2,21.9 M174.4,23.1c0.8-0.1,1.2,0.3,0.9,1c-0.3,0.7-0.8,1.4-1.2,2.1
					c-0.1,0.2-0.3,0.5-0.1,0.7c0.2,0.2,0.5,0.1,0.8,0c0.9-0.2,1.8-0.4,2.7-0.6c1.1-0.2,1.5,0.2,1.1,1.1c-0.3,0.7-0.7,1.3-1.1,2
					c-0.1,0.3-0.3,0.5-0.1,0.8c0.2,0.3,0.6,0.1,0.9,0.1c0.8-0.2,1.6-0.4,2.4-0.6c0.5-0.1,1-0.2,1.3,0.2c0.4,0.3,0.1,0.7,0,1.1
					c-0.6,1.2-1.2,2.3-1.9,3.7c-0.3-0.4,0-0.7,0.1-0.9c0.5-1,1-1.9,1.5-2.9c0.4-0.7,0.1-1.1-0.9-0.9c-0.8,0.2-1.6,0.4-2.4,0.6
					c-0.5,0.1-1,0.3-1.3-0.1c-0.4-0.4-0.1-0.8,0.1-1.1c0.4-0.7,0.8-1.3,1.1-2c0.3-0.7,0.1-0.9-0.8-0.8c-0.9,0.2-1.8,0.4-2.7,0.6
					c-0.4,0.1-0.9,0.2-1.2-0.1c-0.3-0.3-0.1-0.6,0.1-0.9c0.4-0.7,0.8-1.3,1.2-2c0.4-0.7,0.1-1-0.8-0.8c-1.1,0.2-2.2,0.4-3.4,0.7
					c-0.3,0.1-0.6,0.2-0.9-0.1C171.3,23.7,172.8,23.3,174.4,23.1 M168.5,25.2c1.1-0.2,2.3-0.5,3.4-0.7c0.4-0.1,0.9-0.2,1.2,0.1
					c0.4,0.3,0.1,0.7-0.1,1.1c-0.4,0.6-1.5,2.4-1.2,2.6c0.2,0.3,0.6,0.1,0.9,0.1c0.9-0.2,1.8-0.4,2.6-0.5c1.2-0.2,1.6,0.2,1.1,1.1
					c-0.2,0.5-1.1,1.9-1.3,2.2c-0.3,0.6-0.1,0.9,0.7,0.7c0.9-0.2,1.8-0.4,2.7-0.6c0.5-0.1,1-0.2,1.3,0.2c0.4,0.3,0.1,0.8-0.1,1.2
					c-0.6,1.2-1.2,2.4-1.9,3.6c-0.3-0.3-0.1-0.5,0-0.6c0.5-1,1.1-2,1.6-3c0.2-0.3,0.4-0.6,0.1-0.9c-0.3-0.3-0.7-0.1-1.1,0
					c-0.7,0.2-1.4,0.3-2.1,0.5c-0.5,0.1-1.1,0.3-1.5-0.1c-0.4-0.4,0-0.9,0.2-1.3c0.1-0.2,0.2-0.3,0.3-0.5c0.2-0.4,1.1-1.8,0.8-2.1
					c-0.3-0.3-0.8-0.1-1.2,0c-0.8,0.2-1.5,0.3-2.3,0.5c-0.4,0.1-0.9,0.2-1.2-0.1c-0.3-0.3-0.1-0.7,0.1-1c0.3-0.6,0.7-1.1,1-1.7
					c0.2-0.3,0.6-0.7,0.2-1c-0.3-0.3-3.4,0.4-4.6,0.7c-0.2,0-0.5,0.2-0.7,0C167.8,25.2,168.2,25.3,168.5,25.2 M165.3,26.8
					c1.7-0.3,3.3-0.7,4.9-0.9c0.8-0.1,1.1,0.4,0.7,1.1c-0.4,0.7-0.8,1.4-1.2,2c-0.2,0.3-0.5,0.6-0.2,0.8c0.3,0.3,0.7,0.1,1.1,0
					c0.8-0.2,1.7-0.4,2.5-0.5c1.2-0.2,1.6,0.2,1.2,1.2c-0.4,0.7-0.8,1.4-1.2,2.1c-0.1,0.3-0.4,0.5-0.1,0.8c0.2,0.2,0.6,0.1,0.9,0
					c0.9-0.2,1.8-0.4,2.7-0.6c0.5-0.1,0.9-0.1,1.3,0.2c0.4,0.3,0.2,0.7,0,1.1c-0.6,1.2-1.3,2.5-2,3.8c-0.3-0.4-0.1-0.6,0-0.8
					c0.6-1.1,1.1-2.1,1.7-3.1c0.1-0.2,0.3-0.5,0.1-0.7c-0.2-0.3-0.6-0.2-0.9-0.1c-0.8,0.2-1.7,0.4-2.5,0.6c-0.5,0.1-1.1,0.3-1.5-0.1
					c-0.4-0.4,0-0.8,0.2-1.2c0.4-0.7,0.8-1.3,1.2-2c0.4-0.7,0.1-1-0.8-0.8c-0.9,0.2-1.8,0.4-2.7,0.6c-0.5,0.1-0.9,0.2-1.3-0.1
					c-0.3-0.3-0.1-0.7,0.1-1.1c0.4-0.7,0.9-1.4,1.2-2c0.4-0.7,0.1-0.9-0.7-0.8c-1.2,0.2-2.4,0.5-3.6,0.7c-0.3,0.1-0.6,0.2-1,0.1
					C165.3,27,165.3,26.9,165.3,26.8 M163,28.3c1.7-0.3,3.4-0.7,5-1c0.8-0.1,1.1,0.4,0.7,1.1c-0.4,0.7-0.9,1.4-1.3,2.1
					c-0.2,0.3-0.5,0.6-0.3,0.9c0.3,0.3,0.7,0.1,1.1,0c0.9-0.2,1.7-0.4,2.5-0.6c1.2-0.2,1.7,0.2,1.2,1.2c-0.4,0.7-0.9,1.4-1.3,2.2
					c-0.1,0.3-0.4,0.6-0.1,0.8c0.2,0.2,0.6,0.1,0.9,0c0.9-0.2,1.8-0.4,2.8-0.7c0.5-0.1,1-0.1,1.3,0.2c0.4,0.3,0.2,0.7,0,1.1
					c-0.7,1.3-1.4,2.5-2.1,3.9c-0.3-0.4-0.1-0.6,0.1-0.8c0.6-1.1,1.2-2.2,1.7-3.2c0.1-0.3,0.3-0.5,0.1-0.8c-0.2-0.3-0.6-0.2-0.9-0.1
					c-0.9,0.2-1.7,0.4-2.6,0.6c-0.5,0.1-1.1,0.3-1.5-0.1c-0.4-0.4,0-0.9,0.2-1.3c0.4-0.7,0.8-1.3,1.2-2c0.4-0.7,0.1-1-0.8-0.8
					c-0.9,0.2-1.8,0.4-2.7,0.6c-0.5,0.1-1,0.2-1.3-0.1c-0.3-0.3-0.1-0.7,0.2-1.1c0.4-0.7,0.9-1.4,1.3-2.1c0.4-0.7,0.1-0.9-0.7-0.8
					c-1.2,0.2-2.4,0.5-3.6,0.8c-0.3,0.1-0.7,0.2-1,0.1C163,28.4,163,28.4,163,28.3 M160.9,29.7c1.7-0.3,3.4-0.7,5.1-1
					c0.8-0.1,1.1,0.4,0.7,1.1c-0.4,0.7-0.9,1.4-1.3,2.1c-0.2,0.3-0.5,0.6-0.3,0.9c0.3,0.3,0.7,0.1,1.1,0c0.9-0.2,1.7-0.4,2.6-0.6
					c1.3-0.2,1.7,0.2,1.2,1.2c-0.4,0.8-0.9,1.5-1.3,2.2c-0.2,0.3-0.4,0.6-0.1,0.8c0.2,0.2,0.6,0.1,0.9,0c0.9-0.2,1.9-0.5,2.8-0.7
					c0.5-0.1,1-0.2,1.3,0.2c0.4,0.3,0.2,0.8,0,1.1c-0.7,1.3-1.4,2.6-2.2,4c-0.3-0.4,0-0.6,0.1-0.8c0.6-1.1,1.2-2.2,1.8-3.3
					c0.1-0.3,0.3-0.5,0.1-0.8c-0.2-0.3-0.6-0.2-0.9-0.1c-0.9,0.2-1.7,0.4-2.6,0.6c-0.5,0.1-1.1,0.3-1.5-0.1c-0.4-0.4,0-0.9,0.2-1.3
					c0.4-0.7,0.9-1.4,1.2-2.1c0.4-0.7,0.1-1-0.8-0.8c-0.9,0.2-1.9,0.4-2.8,0.6c-0.5,0.1-1,0.2-1.3-0.1c-0.3-0.4,0-0.7,0.2-1.1
					c0.4-0.7,0.9-1.4,1.3-2.1c0.4-0.7,0.2-1-0.7-0.8c-1.2,0.2-2.4,0.5-3.7,0.8c-0.3,0.1-0.7,0.2-1,0.1
					C160.9,29.8,160.9,29.7,160.9,29.7"/>
				<polygon class="st11" points="157.2,35.4 157.5,35.2 157.7,35.4 158.9,34.6 158.7,34.4 159,34.2 159.2,34.4 159.5,34.2 
					159.7,34.4 157.9,35.6 158.1,35.9 157.7,36.1 				"/>
				<path class="st11" d="M160,35.3l0.3-0.2l0.6,0.7l-0.3,0.2L160,35.3z M159.9,36.4l0.6-0.4l0.2,0.2l-0.6,0.4L159.9,36.4z
					 M159.5,35.3l0.3-0.2l0.2,0.2l-0.3,0.2L159.5,35.3z M159.4,36.3l0.3-0.2l0.2,0.2l-0.3,0.2L159.4,36.3z M158.9,36.3l0.3-0.2
					l0.2,0.2l-0.3,0.2L158.9,36.3z M157.9,36.3l0.3-0.2l0.2,0.2l0.3-0.2l0.2,0.2l-0.3,0.2l0.6,0.7l-0.3,0.2L157.9,36.3z"/>
				<path class="st11" d="M161.2,37.3l0.3-0.2l-0.6-0.7l0.3-0.2l1,1.1l-0.3,0.2l-0.2-0.2l-0.3,0.2L161.2,37.3z M160.7,37.3l0.3-0.2
					l0.2,0.2l-0.3,0.2L160.7,37.3z M160.6,37.7l0.3-0.2l0.2,0.2l-0.3,0.2L160.6,37.7z M160.2,38.3l0.6-0.4l0.2,0.2l-0.6,0.4
					L160.2,38.3z M159.4,37.4l0.3-0.2l0.2,0.2l-0.3,0.2L159.4,37.4z M159.3,37.9l0.3-0.2l0.6,0.7l-0.3,0.2L159.3,37.9z"/>
				<path class="st11" d="M160.9,39.7l0.6-0.4l-0.6-0.7l0.6-0.4l0.2,0.2l-0.3,0.2l0.4,0.5l0.6-0.4l-0.2-0.2l0.3-0.2l0.2,0.2l0.3-0.2
					l0.2,0.2l-1.2,0.8l0.2,0.2l-0.3,0.2l-0.2-0.2l-0.6,0.4L160.9,39.7z M161.7,38.4l0.3-0.2l0.2,0.2l-0.3,0.2L161.7,38.4z"/>
				<path class="st11" d="M162.7,39.5l0.9-0.6l1,1.2l-0.3,0.2l-0.8-0.9l-0.3,0.2l0.6,0.7l-0.3,0.2L162.7,39.5z M162.6,41.1l0.9-0.6
					l0.2,0.2l-0.9,0.6L162.6,41.1z M161.8,40.2l0.3-0.2l0.2,0.2l-0.3,0.2L161.8,40.2z M161.7,40.6l0.3-0.2l0.6,0.7l-0.3,0.2
					L161.7,40.6z"/>
				<path class="st11" d="M165,41l0.3-0.2l0.4,0.5l-0.3,0.2L165,41z M164.4,41l0.3-0.2L165,41l-0.3,0.2L164.4,41z M163,41.6l1.2-0.9
					l0.2,0.2l-0.3,0.2l0.6,0.7l-0.3,0.2l-0.6-0.7l-0.6,0.4L163,41.6z M163.8,42.6l0.6-0.4l0.2,0.2l-0.6,0.4L163.8,42.6z M162.9,42.1
					l0.3-0.2l0.6,0.7l-0.3,0.2L162.9,42.1z"/>
			</g>
		</g>
	</g>
</g>
</svg>
